<?xml version="1.0" encoding="utf-8"?>
<!-- Generator: Adobe Illustrator 16.2.0, SVG Export Plug-In . SVG Version: 6.00 Build 0)  -->
<!DOCTYPE svg PUBLIC "-//W3C//DTD SVG 1.1//EN" "http://www.w3.org/Graphics/SVG/1.1/DTD/svg11.dtd">
<svg version="1.1" id="Layer_1" xmlns="http://www.w3.org/2000/svg" xmlns:xlink="http://www.w3.org/1999/xlink" x="0px" y="0px"
	 width="237.333px" height="258.667px" viewBox="0 0 237.333 258.667" enable-background="new 0 0 237.333 258.667"
	 xml:space="preserve">
<g>
	<g id="ficus_lirata">
		<g id="ficus_lirata_1_">
			<path fill="#2A4E24" d="M150.076,102.243c0.106-3.313-1.366-7.001-4.828-7.794c-1.704-0.391-3.929,0.131-5.661,0.323
				c-2.203,0.243-4.351,0.774-6.441,1.514c-3.437,1.217-6.798,2.653-10.105,4.194c-3.021,1.408-6.156,2.621-9.137,4.112
				c-1.618,0.81-2.389,1.425-2.806,3.278c-0.52,2.302-0.246,5.002-0.408,7.355c-0.254,3.668-0.439,7.34-0.623,11.011
				c-0.367,7.437-0.32,14.908-1.033,22.314c-0.182,1.908,2.496,2.379,3.363,0.929c2.394-3.999,5.722-6.255,9.4-8.924
				c3.251-2.358,6.392-4.834,9.741-7.053c3.183-2.109,6.524-3.847,9.758-5.851c2.33-1.443,4.459-3.313,5.459-5.97
				c1.156-3.081,0.141-5.781,0.131-8.9C146.873,108.977,149.947,106.109,150.076,102.243z"/>
			<path fill="#1E331B" d="M121.06,120.223c0.369,0.964,0.542,1.589,0.511,2.539l1.13,0.036l-0.495-0.543
				c0.256-0.242,0.503-0.437,0.752-0.613c-0.092-0.65-0.27-1.252-0.545-1.962c-1.597-4.146-3.159-7.356-4.918-10.104
				c-1.147-1.79-2.329-3.448-3.556-5.001c-0.01,0.006-0.023,0.011-0.035,0.017c-0.491,0.246-0.897,0.477-1.247,0.726
				c1.251,1.57,2.454,3.249,3.62,5.069C117.979,113.049,119.499,116.174,121.06,120.223z"/>
			<path fill="#1E331B" d="M135.62,117.819c-3.187,0.451-6.585,1.357-10.698,2.853c-0.773,0.28-1.376,0.555-1.965,0.971
				c-0.249,0.176-0.496,0.371-0.752,0.613l0.495,0.543l0.495,0.545c0.682-0.647,1.258-0.925,2.214-1.274
				c4.019-1.459,7.324-2.343,10.411-2.781c4.058-0.575,7.837-0.719,11.479-0.447c0.019-0.499,0-0.995-0.033-1.49
				C143.564,117.087,139.73,117.237,135.62,117.819z"/>
			<path fill="#1E331B" d="M133.467,106.646c-1.101,0.399-1.857,0.77-2.717,1.583l0.99,1.088c0.684-0.646,1.257-0.925,2.214-1.274
				c4.017-1.461,7.326-2.344,10.41-2.779c1.797-0.254,3.533-0.424,5.232-0.512c0.159-0.489,0.287-0.988,0.37-1.502
				c-1.879,0.083-3.808,0.26-5.802,0.543C140.979,104.243,137.581,105.15,133.467,106.646z"/>
			<path fill="#1E331B" d="M125.288,120.598c2.546-4.558,5.491-8.461,8.559-12.487c3.011-3.953,6.604-7.568,9.191-11.96
				c0.414-0.704,0.201-1.439-0.215-1.792c-0.411,0.034-0.82,0.082-1.227,0.137c-0.04,0.043-0.078,0.085-0.113,0.138
				c-1.672,2.446-4.079,4.218-6.048,6.307c-1.681,1.787-3.203,3.743-4.763,5.689c-3.464,4.33-6.478,8.78-9.197,13.857
				c-2.677,5.003-5.179,10.227-7.239,15.633c-1.655,4.349-3.715,9.385-3.856,14.165c0.742,0.149,1.593-0.098,2.016-0.805
				c0.169-0.282,0.356-0.543,0.537-0.813c1.368-4.099,3.15-8.118,4.746-12.067C119.911,131.074,122.435,125.701,125.288,120.598z"/>
			<path fill="#A76653" d="M112.455,159.604c-0.128-5.87-0.134-11.741-0.091-17.614c0.091-11.726,0.632-23.507,0.042-35.226
				c-0.038-0.771-0.569-1.176-1.134-1.229c-0.023-1.208-0.049-2.417-0.089-3.628c-0.067-1.931-2.553-2.655-3.563-0.984
				c-0.989,1.636-0.884,3.287-1.024,5.143c-0.247,3.256-0.716,6.467-0.838,9.742c-0.262,6.957-0.104,13.955-0.146,20.917
				c-0.039,6.559,0.021,11.564,0.188,18.122c0.083,3.255,0.066,8.051,0.013,11.307c-0.053,3.286,0.242,6.915-0.431,10.138
				c-0.258,1.23,0.536,2.363,1.797,2.407c1.716,0.06,3.206-0.267,4.843-0.751c0.766-0.227,1.354-0.978,1.345-1.803
				C113.304,170.654,112.575,165.119,112.455,159.604z"/>
			<path fill="#2A4E24" d="M146.371,36.254c-0.537-3.756-2.162-7.498-5.794-9.047c-1.525-0.651-3.124-0.792-4.755-0.632
				c-1.196,0.118-2.447,0.558-3.645,0.46c-1.42-0.116-2.631-1.063-3.984-1.409c-4.382-1.124-9.868,1.758-13.147,4.462
				c-3.569,2.944-5.851,7.06-7.063,11.509c-0.782,2.862-1.716,6.679-1.009,9.618c0.781,3.25,1.032,6.583,1.482,9.911
				c0.43,3.19,0.43,6.405,0.917,9.591c0.304,2,0.385,5.146,1.705,6.807c2.413,3.042,6.843-1.333,8.806-2.839
				c4.393-3.372,8.646-7.049,12.771-10.755C140.847,56.568,148.068,48.142,146.371,36.254z"/>
			<path fill="#1E331B" d="M119.319,56.188l0.393,1.1l0.806-0.83c3.182-3.272,11.231-1.275,18.189,1.471
				c0.349-0.395,0.693-0.792,1.026-1.196c-6.633-2.688-15.11-5.073-19.421-2.027c-1.188-2.978-5.127-11.833-11.329-16.077
				c-0.19,0.476-0.372,0.956-0.535,1.443C115.228,44.958,119.268,56.047,119.319,56.188z"/>
			<path fill="#1E331B" d="M125.95,43.636l-0.154,1.307l1.176-0.542c0.14-0.063,12.993-5.927,19.636-3.902
				c0.018-0.503,0.015-1.014-0.003-1.531c-6.174-1.548-16.016,2.274-19.213,3.633c-0.422-4.216-4.646-11.212-7.543-15.58
				c-0.444,0.214-0.881,0.439-1.305,0.679C121.924,32.797,126.336,40.324,125.95,43.636z"/>
			<path fill="#1E331B" d="M125.125,49.249c2.035-4.044,3.91-8.228,5.566-12.433l0.542-1.364c1.113-2.781,2.245-5.635,2.936-8.599
				c-0.667,0.126-1.337,0.235-1.991,0.181c-0.101-0.008-0.198-0.029-0.297-0.045c-0.665,2.587-1.676,5.134-2.668,7.623l-0.546,1.373
				c-1.635,4.141-3.479,8.262-5.483,12.248c-3.942,7.831-8.601,15.332-13.837,22.307c0.009,0.058,0.015,0.117,0.025,0.176
				c0.126,0.84,0.219,1.881,0.377,2.931c0.341-0.449,0.687-0.894,1.026-1.342C116.22,65.108,121.046,57.352,125.125,49.249z"/>
			<path fill="#44813D" d="M110.386,44.088c-0.957-2.175-2.208-4.269-3.862-5.969c-2.005-2.061-4.725-2.954-6.815-4.842
				c-2.254-2.036-2.944-5.358-5-7.629c-1.577-1.741-3.655-2.986-5.985-3.268c-4.789-0.582-8.868,2.964-10.654,7.25
				c-1.372,3.294-0.953,6.165-0.916,9.619c0.04,3.676-2.465,6.506-2.447,10.152c0.015,3.236,1.398,6.229,3.024,8.924
				c0.887,1.474,1.796,2.586,2.786,3.614c1.629,2.442,2.853,5.105,4.629,7.448c1.875,2.472,3.975,4.893,6.106,7.139
				c1.894,1.994,4.078,3.482,6.46,4.814c2.077,1.16,4.702,2.856,7.168,2.835c3.714-0.032,5.171-3.665,5.905-6.828
				c1.242-5.341,2.671-10.745,2.87-16.257C113.861,55.362,112.685,49.32,110.386,44.088z"/>
			<path fill="#376631" d="M91.148,42.088c3.206-3.216,4.984-8.064,5.972-12.566c-0.358-0.689-0.712-1.382-1.103-2.047
				c-0.854,4.747-2.542,10.197-5.888,13.555L91.148,42.088z"/>
			<path fill="#376631" d="M95.864,54.297l0.801,1.239c5.562-3.746,8.722-11.627,10.296-16.914
				c-0.147-0.166-0.282-0.344-0.438-0.503c-0.241-0.247-0.491-0.475-0.751-0.692C104.33,42.488,101.273,50.653,95.864,54.297z"/>
			<path fill="#376631" d="M100.371,66.844l0.6,1.353c5.67-2.626,9.824-9.152,12.276-14.051c-0.123-0.831-0.277-1.66-0.452-2.482
				C110.606,56.425,106.309,64.094,100.371,66.844z"/>
			<path fill="#376631" d="M90.315,42.417l-0.484-1.399c-3.891,1.404-8.645,0.921-12.832-0.097
				c-0.092,0.498-0.217,0.985-0.365,1.462c2.415,0.587,5.025,1.002,7.592,1.002C86.331,43.384,88.406,43.105,90.315,42.417z"/>
			<path fill="#376631" d="M96.004,57.26l-0.654-1.324c-5.552,2.855-13.578,1.727-18.655,0.537c0.309,0.6,0.637,1.187,0.981,1.76
				c2.565,0.54,5.66,0.999,8.804,0.999C89.799,59.231,93.166,58.721,96.004,57.26z"/>
			<path fill="#2A4E24" d="M97.673,55.646c-2.173-5.844-4.47-11.737-6.891-17.477c-2.214-5.254-4.524-9.968-7.548-14.61
				c-0.644,0.371-1.25,0.813-1.813,1.316c0.949,1.758,1.946,3.497,2.77,5.323c1.237,2.739,2.345,5.539,3.549,8.295
				c2.55,5.84,4.569,12.041,6.651,18.073c2.096,6.072,4.392,12.07,6.249,18.225c0.89,2.948,1.813,6.035,2.576,9.153
				c0.559,0.141,1.117,0.232,1.666,0.228c0.677-0.006,1.276-0.134,1.813-0.354c-0.689-2.973-1.55-5.908-2.355-8.675
				C102.417,68.545,100.064,62.082,97.673,55.646z"/>
			<path fill="#6E9F41" d="M102.272,133.358c-0.229-0.405-0.479-0.801-0.748-1.184c-1.523-2.168-3.851-4.103-6.452-4.635
				c-1.525-0.312-3.365-0.352-4.612-1.427c-1.38-1.187-2.652-2.719-3.509-4.347c-0.777-1.474-1.396-3.043-2.337-4.413
				c-1.675-2.434-4.332-4.109-7.188-4.7c-7.216-1.495-12.016,3.894-17.828,7.059c-5.423,2.954-9.868,6.602-10.031,13.39
				c-0.139,5.825,2.952,10.835,8.006,13.493c3.076,1.619,6.375,1.668,9.743,1.843c1.541,0.078,3.073-0.149,4.633,0.083
				c1.813,0.271,3.567,0.869,5.266,1.55c4.79,1.915,9.451,3.889,14.708,3.443c5.446-0.459,11.611-5.272,12.25-11.085
				C104.517,139.302,103.812,136.077,102.272,133.358z"/>
			<path fill="#376631" d="M162.316,115.739c-10.352-3.038-21.021,2.914-28.088,10.07c-1.696,1.715-3.479,3.229-5.905,3.71
				c-1.294,0.256-2.59,0.15-3.861,0.613c-2.242,0.82-4.112,2.702-5.638,4.494c-3.803,4.473-5.212,9.901-7.252,15.229
				c-0.716,1.864-1.056,6.046,0.684,4.75c4.767-3.563,13.932,3.021,19.023,3.821c4.964,0.783,10.259,0.049,14.694-2.429
				c4.73-2.642,6.009-7.63,8.727-12.02c3.127-5.046,9.199-5.669,12.909-9.917C173.032,127.855,170.025,118.001,162.316,115.739z"/>
			<path fill="#274822" d="M123.198,140.714c-0.288,0.089-0.451,0.398-0.365,0.692c0.087,0.295,0.394,0.466,0.678,0.374
				c3.786-1.153,8.251-0.522,11.28,0.051c6.662,1.264,12.455,3.857,17.009,7.54c0.177-0.327,0.35-0.658,0.521-0.992
				c-4.671-3.73-10.567-6.358-17.329-7.642C131.85,140.141,127.207,139.491,123.198,140.714z"/>
			<path fill="#274822" d="M120.198,143.945c0.079,0.043,0.164,0.063,0.248,0.063c0.198,0,0.39-0.113,0.485-0.304
				c2.059-4.085,3.147-8.646,3.283-13.464c-0.381,0.154-0.75,0.338-1.112,0.547c-0.202,4.439-1.241,8.636-3.14,12.407
				C119.823,143.468,119.931,143.805,120.198,143.945z"/>
			<path fill="#274822" d="M137.891,134.642c-0.144,0.272-0.043,0.609,0.222,0.754c0.083,0.045,0.17,0.066,0.256,0.066
				c0.197,0,0.385-0.107,0.483-0.294c2.701-5.146,1.87-9.333-0.145-13.32c-0.295,0.228-0.591,0.458-0.88,0.694
				C139.664,126.244,140.325,130.003,137.891,134.642z"/>
			<path fill="#274822" d="M151.949,126.051c-0.145,0.271-0.043,0.608,0.223,0.753c0.082,0.046,0.171,0.066,0.257,0.066
				c0.195,0,0.385-0.106,0.484-0.293c2.281-4.346,2.037-8.008,0.697-11.442c-0.37,0.05-0.741,0.112-1.107,0.18
				C153.833,118.586,154.088,121.979,151.949,126.051z"/>
			<path fill="#274822" d="M140.204,132.825c-0.291,0.088-0.453,0.397-0.368,0.692c0.088,0.293,0.39,0.462,0.679,0.374
				c3.785-1.155,8.249-0.524,11.279,0.05c4.037,0.766,7.756,2.021,11.073,3.71c0.375-0.213,0.746-0.433,1.115-0.658
				c-3.567-1.902-7.592-3.313-11.988-4.146C148.854,132.252,144.217,131.602,140.204,132.825z"/>
			<path fill="#274822" d="M156.022,123.188c-0.296,0.042-0.509,0.321-0.465,0.626c0.038,0.305,0.315,0.522,0.613,0.477
				c3.913-0.542,8.229,0.791,11.135,1.838c1.042,0.377,2.053,0.794,3.039,1.231c0.021-0.403,0.028-0.807,0.007-1.207
				c-0.875-0.378-1.766-0.743-2.683-1.073C164.655,123.992,160.171,122.616,156.022,123.188z"/>
			<path fill="#608B3C" d="M158.971,64.88c-1.53-0.821-3.047-1.369-4.709-1.801c-1.264-0.329-1.772,0.063-2.336-1.28
				c-1.029-2.458-0.556-4.94-2.441-7.179c-3.839-4.551-10.267-3.851-14.704-0.756c-2.645,1.847-4.94,4.283-6.91,6.846
				c-1.101,1.435-2.008,3.117-3.385,4.3c-1.893,1.63-4.46,2.317-6.683,3.34c-3.346,1.538-6.064,3.644-8.196,6.711
				c-2.217,3.189-2.626,6.477-3.235,10.116c-2.022,5.939-5.288,13.945-2.595,20.023c0.861,1.945,2.396,2.903,4.379,3.355
				c3.063,0.697,6.369,1.116,9.495,1.341c7.687,0.556,13.94-0.727,20.141-5.581c2.636-2.063,4.257-4.792,6.457-7.262
				c3.082-3.466,7.323-4.189,11.365-5.939c5.257-2.275,10.281-7.107,10.972-13.145C167.235,72.303,163.707,67.422,158.971,64.88z"/>
			<path fill="#6E9F41" d="M121.894,93.714c0.131,0.246,0.382,0.385,0.638,0.385c0.118,0,0.239-0.029,0.349-0.091
				c0.353-0.197,0.481-0.65,0.287-1.008c-3.915-7.263-3.426-18.951-2.701-25.756c-0.516,0.211-1.036,0.417-1.549,0.627
				C118.21,74.922,117.895,86.301,121.894,93.714z"/>
			<path fill="#6E9F41" d="M133.97,84.604c0.379,0.388,0.784,0.757,1.203,1.112c0.133-0.011,0.263-0.052,0.378-0.139
				c0.32-0.246,0.387-0.71,0.146-1.04c-5.682-7.74-5.23-21.274-4.663-27.478c-0.561,0.566-1.101,1.152-1.621,1.756
				C128.944,65.511,129.026,77.062,133.97,84.604z"/>
			<path fill="#6E9F41" d="M146.055,72.57c0.144,0.183,0.354,0.279,0.568,0.279c0.156,0,0.319-0.053,0.454-0.163
				c0.312-0.256,0.363-0.723,0.112-1.042c-3.161-4.033-3.411-12.444-2.825-20.066c-0.484-0.098-0.973-0.15-1.468-0.175
				C142.295,59.312,142.594,68.158,146.055,72.57z"/>
			<path fill="#6E9F41" d="M119.327,94.981c-0.247,0.324-0.188,0.79,0.131,1.04c5.297,4.175,13.525,5.915,20.154,6.627
				c0.429-0.45,0.83-0.92,1.226-1.395c-6.626-0.626-15.224-2.254-20.49-6.406C120.028,94.594,119.569,94.656,119.327,94.981z"/>
			<path fill="#6E9F41" d="M133.97,84.604c-0.047-0.048-0.1-0.092-0.146-0.141c-0.279-0.293-0.74-0.298-1.028-0.011
				c-0.286,0.285-0.295,0.756-0.013,1.049c4.201,4.391,10.703,6.753,16.597,8.023c0.86-0.375,1.745-0.707,2.641-1.034
				c-5.665-0.989-12.314-2.939-16.848-6.774C134.754,85.361,134.349,84.992,133.97,84.604z"/>
			<path fill="#6E9F41" d="M144.915,74.104c-0.243,0.438-0.503,0.869-0.781,1.291c4.302,4.156,13.583,5.643,21.515,6.104
				c0.202-0.483,0.377-0.975,0.521-1.481C158.223,79.594,148.826,78.184,144.915,74.104z"/>
			<path fill="#B0CC4C" d="M114.972,101.407c5.673-5.152,12.517-8.887,18.61-13.483c8.644-6.52,15.963-14.822,19.738-25.013
				c-0.623-0.082-0.999-0.167-1.395-1.113c-0.205-0.49-0.35-0.98-0.466-1.47c-2.157,5.115-4.711,9.998-8.243,14.332
				c-4.783,5.88-10.939,9.993-17.237,13.997c-5.803,3.689-11.708,7.448-16.453,12.53c-1.786,1.912-3.174,3.891-4.339,5.952
				c0.808,0.706,1.808,1.152,2.968,1.416c0.141,0.032,0.287,0.055,0.428,0.086C110.386,105.962,112.592,103.565,114.972,101.407z"/>
			<path fill="#6E9F41" d="M114.661,94.5c-0.568-8.386-4.8-14.317-13.175-15.512c-2.665-0.38-5.147-0.808-6.351-3.63
				c-0.971-2.274-0.968-4.995-1.652-7.368c-0.94-3.263-2.591-5.73-5.935-6.672c-4.177-1.173-7.352,1.28-11.355,1.551
				c-3.484,0.236-6.023-2.261-9.283-2.82c-2.437-0.418-5.53,1.322-7.459,2.685c-3.199,2.259-5.919,5.808-6.667,9.764
				c-1.403,7.415,2.756,16.507,9.777,19.308c2.179,0.869,4.708,0.928,6.516,2.622c1.744,1.637,2.123,4.023,2.531,6.281
				c0.831,4.617,2.997,7.764,7.2,9.905c4.521,2.306,9.678,1.703,14.456,3.019c6.324,1.742,8.909,6.419,11.97,11.761
				c0.803,1.4,2.54,0.692,2.885-0.797c0.721-3.106,1.734-5.117,2.787-7.579c1.02-2.38,1.804-4.853,2.396-7.378
				C114.457,104.707,115.006,99.563,114.661,94.5z"/>
			<path fill="#376631" d="M78.26,82.854c-0.153,0.379,0.027,0.813,0.399,0.967c0.089,0.037,0.182,0.055,0.273,0.055
				c0.288,0,0.56-0.175,0.676-0.464c3.22-8.088,2.559-17.925,2.116-21.837c-0.475,0.132-0.949,0.276-1.425,0.418
				C80.709,65.938,81.252,75.334,78.26,82.854z"/>
			<path fill="#376631" d="M93.023,95.546c0.09,0.037,0.182,0.055,0.274,0.055c0.287,0,0.558-0.175,0.675-0.463
				c2.341-5.879,3.195-12.551,3.498-17.197c-0.52-0.274-0.993-0.628-1.404-1.093c-0.244,4.557-1.026,11.663-3.442,17.731
				C92.471,94.958,92.651,95.393,93.023,95.546z"/>
			<path fill="#376631" d="M71.018,80.521c0.398-0.049,0.683-0.418,0.635-0.826c-0.048-0.406-0.396-0.699-0.81-0.648
				c-8.386,1.022-15.092-0.68-18.218-1.726c0.057,0.551,0.142,1.103,0.249,1.651c2.662,0.838,7.09,1.881,12.677,1.881
				C67.27,80.854,69.099,80.755,71.018,80.521z"/>
			<path fill="#376631" d="M90.404,91.74c0.296-0.279,0.314-0.748,0.042-1.049c-0.273-0.302-0.734-0.32-1.029-0.042
				c-5.682,5.363-13.74,5.905-19.059,5.539c0.25,0.497,0.448,1.019,0.608,1.56c0.652,0.035,1.334,0.058,2.048,0.058
				C78.369,97.805,85.216,96.634,90.404,91.74z"/>
			<path fill="#376631" d="M99.87,103.443c0.272-0.303,0.25-0.773-0.046-1.048c-0.296-0.276-0.756-0.256-1.027,0.047
				c-6.467,7.225-17.174,7.394-21.818,7.08c0.563,0.389,1.168,0.754,1.83,1.09c0.375,0.192,0.755,0.356,1.139,0.51
				C85.522,111.093,94.121,109.87,99.87,103.443z"/>
			<path fill="#376631" d="M100.877,105.096c-0.28,0.294-0.274,0.764,0.014,1.05c0.142,0.14,0.324,0.21,0.508,0.21
				c0.188,0,0.378-0.075,0.521-0.225c7.759-8.126,6.584-20.675,5.923-24.884c-0.517-0.329-1.065-0.625-1.64-0.892
				C106.557,82.179,109.037,96.548,100.877,105.096z"/>
			<path fill="#B0CC4C" d="M109.777,130.549c-1.506-14.467-7.811-29.769-18.506-39.569c-5.31-4.866-11.199-7.799-17.327-11.402
				c-6.637-3.902-12.284-9.092-15.567-16.017c-0.388,0.321-0.764,0.66-1.128,1.016c1.998,4.916,5.409,9.189,9.341,12.659
				c5.563,4.909,12.63,7.186,18.462,11.647c6.214,4.754,9.942,11.447,13.563,18.303c1.903,3.601,3.449,7.291,4.586,11.215
				c1.204,4.149,1.819,8.584,3.451,12.579C107.267,132.488,109.986,132.556,109.777,130.549z"/>
			<path fill="#1E331B" d="M119.127,145.565c4.338-3.934,9.311-6.543,16.128-8.464c3.972-1.117,7.444-3.526,10.801-5.857
				c1.333-0.928,2.715-1.886,4.075-2.723c0.996-0.611,1.976-1.25,2.918-1.868c2.857-1.868,5.558-3.633,8.77-4.721
				c2.236-0.756,4.496-1.205,6.742-1.442c-0.384-0.61-0.824-1.187-1.319-1.716c-1.994,0.274-4,0.723-5.995,1.397
				c-3.431,1.16-6.352,3.071-9.18,4.918c-0.943,0.619-1.896,1.24-2.871,1.841c-1.408,0.864-2.809,1.836-4.164,2.777
				c-3.234,2.246-6.577,4.568-10.259,5.604c-7.1,1.999-12.298,4.733-16.853,8.864c-1.961,1.78-4.836,4.699-6.878,8.074
				c-0.143,1.368-0.007,2.642,0.67,2.594C113.672,150.821,117.344,147.183,119.127,145.565z"/>
			<path fill="#B0CC4C" d="M77.625,137.771c2.876-1.13,7.153-2.582,11.081-2.153c0.296,0.036,0.567-0.188,0.6-0.494
				c0.032-0.305-0.185-0.581-0.483-0.614c-4.161-0.454-8.607,1.052-11.588,2.223c-4.871,1.914-13.151,6.964-16.907,10.911
				c0.549,0.145,1.104,0.263,1.662,0.353C65.905,143.95,71.89,140.025,77.625,137.771z"/>
			<path fill="#B0CC4C" d="M99.659,143.895c0.299,0.02,0.56-0.218,0.578-0.524c0.018-0.306-0.211-0.569-0.513-0.589
				c-4.176-0.258-8.549,1.457-11.474,2.771c-3.067,1.377-6.266,3.204-9.173,5.261c0.538,0.215,1.076,0.424,1.613,0.627
				c2.832-2.057,5.77-3.87,7.998-4.871C91.51,145.307,95.715,143.65,99.659,143.895z"/>
			<path fill="#B0CC4C" d="M92.834,137.563c0.084-0.005,0.167-0.03,0.246-0.074c0.261-0.153,0.351-0.492,0.202-0.761
				c-0.923-1.64-2.987-8.148-3.564-11.313c-0.446-0.437-0.874-0.899-1.272-1.395c0.36,4.795,1.653,9.29,3.89,13.263
				C92.44,137.47,92.637,137.571,92.834,137.563z"/>
			<path fill="#B0CC4C" d="M74.048,129.605c0.106,0.182,0.3,0.279,0.494,0.269c0.086-0.003,0.173-0.027,0.253-0.078
				c0.258-0.157,0.343-0.499,0.188-0.763c-2.46-4.203-0.524-12.41,1.097-16.583c-0.422-0.041-0.835-0.058-1.241-0.052
				C73.071,116.885,71.833,125.821,74.048,129.605z"/>
			<path fill="#B0CC4C" d="M72.328,128.409c0.295,0.074,0.588-0.108,0.661-0.407c0.071-0.298-0.105-0.6-0.397-0.675
				c-4.065-1.031-8.342-0.162-11.45,0.581c-4.114,0.984-8.156,2.472-11.522,4.378c-0.02,0.27-0.046,0.537-0.053,0.815
				c-0.006,0.271,0.001,0.536,0.008,0.802c3.228-1.79,7.798-4.028,11.487-4.91C64.063,128.276,68.494,127.434,72.328,128.409z"/>
			<path fill="#C6DB5D" d="M62.478,123.5c1.398,0.771,2.819,1.663,4.196,2.525c3.458,2.17,7.035,4.412,11.054,5.341
				c6.899,1.595,11.659,4.572,16.155,8.313c8.378,6.969,10.375,10.08,11.917,15.169c2.428-0.274,2.15-2.823,0.971-6.007
				c-2.741-4.791-8.055-9.293-11.403-11.228c-5.303-3.064-10.054-6.396-17.238-8.057c-3.725-0.861-7.172-3.023-10.504-5.113
				c-1.396-0.875-2.84-1.78-4.284-2.577c-1.006-0.553-1.983-1.129-2.956-1.703c-0.259-0.152-0.52-0.305-0.78-0.458
				c-0.001,0.002-0.005,0.002-0.008,0.004c-0.628,0.342-1.24,0.696-1.837,1.06c0.569,0.328,1.14,0.661,1.716,1.001
				C60.45,122.344,61.455,122.937,62.478,123.5z"/>
		</g>
		<g>
			<path fill="#C65127" d="M109.737,230.609c-0.133,0-0.257-0.009-0.386-0.01c-0.132,0.001-0.255,0.01-0.388,0.01H109.737z"/>
			<path fill="#DB5926" d="M119.082,192.711c-2.775-2.069-5.4-1.766-8.546-0.479c-4.062,1.659-7.408,3.947-11.701,1.646
				c-3.494-1.874-5.612-2.636-9.701-2.012c-2.608,0.396-5.046,1.896-7.592,2.549c0.734,3.876,1.654,8.007,2.794,11.985
				c2.48,8.645,5.002,24.002,25.015,24.2c20.012-0.198,22.532-15.556,25.011-24.198c1.496-5.207,2.611-10.676,3.423-15.494
				c-3.123,0.565-6.08,2.32-9.037,3.434C124.957,195.773,122.167,195.013,119.082,192.711z"/>
			<path fill="#C65127" d="M79.032,176.444c0,0,0.657,8.175,2.509,17.97c2.546-0.652,4.984-2.152,7.592-2.549
				c4.089-0.624,6.207,0.138,9.701,2.012c4.293,2.302,7.64,0.014,11.701-1.646c3.146-1.286,5.771-1.59,8.546,0.479
				c3.085,2.302,5.875,3.063,9.666,1.63c2.957-1.113,5.914-2.868,9.037-3.434c1.379-8.162,1.885-14.463,1.885-14.463H79.032z"/>
			<path fill="#5C4D35" d="M78.093,174.001c3.673-1.565,7.5-3.721,11.615-3.1c1.067,0.161,1.928,0.741,2.956,0.995
				c1.126,0.274,2.083,0.065,3.165-0.269c2.538-0.786,4.987-1.656,7.64-1.981c2.605-0.323,4.144,0.934,6.527,1.584
				c2.497,0.684,4.757-0.367,7.176-0.81c2.851-0.516,5.974-0.521,8.763,0.334c1.372,0.422,2.648,1.162,4.035,1.533
				c1.461,0.389,2.908,0.049,4.378-0.076c2.605-0.224,6.007,0.876,5.182,4.326c-0.306,1.271-1.234,1.735-2.405,2.009
				c-2.135,0.5-4.427,0.551-6.602,0.706c-5.958,0.424-11.886,0.475-17.853,0.209c-4.295-0.194-8.585,0.023-12.88,0.009
				c-5.425-0.014-10.549-1.321-15.813-2.452C82.932,176.793,77.573,176.146,78.093,174.001z"/>
			<path fill="#FAA85C" d="M75.958,176.918c7.537,1.609,19.868,2.571,32.986,2.571c13.648,0,26.243-1.022,33.699-2.728
				c0.941-0.215,1.879-0.203,2.769-0.036c-0.023-0.163-0.027-0.319-0.069-0.479c-0.742-2.979-3.712-4.784-6.629-4.022
				c-6.576,1.705-17.686,2.722-29.723,2.722c-11.568,0-22.442-0.958-29.089-2.565c-2.932-0.71-5.873,1.142-6.567,4.134
				c-0.03,0.128-0.028,0.257-0.05,0.384C74.144,176.74,75.049,176.727,75.958,176.918z"/>
			<path fill="#F79334" d="M77.385,183.215c7.536,1.822,19.056,2.866,31.606,2.866c12.893,0,25.008-1.146,32.41-3.065
				c2.765-0.718,4.468-3.474,4.011-6.29c-0.89-0.167-1.827-0.179-2.769,0.036c-7.456,1.705-20.051,2.728-33.699,2.728
				c-13.118,0-25.449-0.962-32.986-2.571c-0.91-0.191-1.814-0.178-2.674-0.021C72.823,179.76,74.58,182.536,77.385,183.215z"/>
			<path fill="#FAA85C" d="M136,222.417c0.09-0.299,0.137-0.587,0.092-0.842c-0.002-0.01-0.005-0.021-0.006-0.032
				c-0.288-1.52-1.903-2.36-3.32-1.807c-5.235,2.045-13.15,3.703-23.723,3.703c-10.215,0-17.955-1.583-23.118-3.55
				c-1.425-0.544-3.022,0.314-3.312,1.839c-0.007,0.04-0.014,0.077-0.021,0.114c-0.038,0.22-0.009,0.458,0.054,0.711
				c6.014,1.876,14.814,3.366,26.344,3.366C120.906,225.92,129.896,224.365,136,222.417z"/>
			<path fill="#F79334" d="M109.085,231.411c16.937,0,25.932-5.735,26.915-8.994c-6.104,1.948-15.094,3.503-27.009,3.503
				c-11.53,0-20.33-1.49-26.344-3.366C83.456,225.76,92.457,231.411,109.085,231.411z"/>
		</g>
	</g>
	<g id="pilea_1_">
		<g>
			<path fill="#B0AFB0" d="M180.328,236.351h-11.49c-10.084,0-18.259-8.341-18.259-18.629v-20.045c0-2.645,2.101-4.785,4.694-4.785
				h38.62c2.591,0,4.693,2.141,4.693,4.785v20.045C198.587,228.01,190.413,236.351,180.328,236.351z"/>
			<path fill="#727373" d="M194.161,193.147c-0.556-0.167-1.139-0.256-1.743-0.256h-4.028c-8.213,13.535-20.368,24.14-33.291,33.266
				c1.001,1.415,2.141,2.72,3.408,3.887C172.577,220.046,185.758,208.299,194.161,193.147z"/>
			<path fill="#727373" d="M168.344,235.512c1.993,0.545,4.081,0.839,6.238,0.839l0,0c0.469,0,0.93-0.019,1.389-0.042
				c8.19-6.169,15.906-13.022,22.361-20.892c0.165-1.162,0.255-2.35,0.255-3.559v-5.306
				C190.621,218.063,179.801,227.376,168.344,235.512z"/>
			<path fill="#727373" d="M172.864,192.892h-6.354c-4.637,6.083-10.068,11.534-15.931,16.527v2.439
				c0,1.353,0.111,2.675,0.317,3.966C159.198,209.116,166.825,201.602,172.864,192.892z"/>
		</g>
		<g id="pilea">
			<path fill="#FAA85C" d="M176.334,194.698c-0.058,0-1.828-1.994-1.89-2.001c-0.762-0.097,0.829-4.156,0.926-4.935
				c0.641-5.136,0.103-9.561,1.067-13.1c4.192-15.389,10.569-17.051,11.432-17.207c0.751-0.137,1.479,0.379,1.611,1.151
				c0.132,0.762-0.355,1.49-1.098,1.638c-0.149,0.04-4.574,1.309-8.187,11.73c-1.353,3.903-1.641,14.177-2.498,21.067
				C177.608,193.76,177.025,194.698,176.334,194.698z"/>
			<path fill="#AF9D57" d="M179.594,194.109c-0.079,0-0.161-0.009-0.239-0.021c-0.758-0.134-1.265-0.868-1.131-1.639
				c5.127-30.331,25.469-42.263,26.331-42.756c0.67-0.384,1.518-0.14,1.892,0.544c0.377,0.686,0.139,1.551-0.53,1.933l0,0
				c-0.2,0.114-20.059,11.821-24.954,40.761C180.846,193.621,180.257,194.109,179.594,194.109z"/>
			<path fill="#6E9F41" d="M169.156,150.271c-7.516,5.034-14.545,6.853-16.701,3.496c-2.155-3.353,0.103-10.889,8.648-16.864
				c8.352-5.842,14.547-4.118,16.975,0.407C179.964,140.828,176.676,145.24,169.156,150.271z"/>
			<path fill="#AF9D57" d="M176.636,190.688c-0.014,0-0.025,0-0.037,0c-0.77-0.02-1.376-0.671-1.354-1.453
				c1.021-40.411-9.161-43.494-9.264-43.515c-0.755-0.145-1.252-0.886-1.11-1.658c0.142-0.769,0.866-1.279,1.624-1.132
				c1.293,0.247,12.613,3.655,11.529,46.375C178.007,190.078,177.385,190.688,176.636,190.688z"/>
			<path fill="#FAA85C" d="M209.933,202.808l-1.285-1.968c-0.276,0.186-0.358,0.426-0.361,0.428c0.126-0.367,0.54-3.634-1.336-7.244
				c-1.938-3.733-5.535-6.33-10.692-7.713c-1.641-0.44-3.021-0.288-4.216,0.465c-2.489,1.575-3.318,5.313-3.324,5.348l-2.272-0.483
				c0.039-0.192,1.011-4.753,4.379-6.875c1.74-1.101,3.769-1.346,6.025-0.742c10.447,2.806,13.062,9.689,13.691,13.541
				C210.548,197.607,211.236,201.924,209.933,202.808z"/>
			<path fill="#447E3B" d="M203.434,155.652c6.056,3.938,15.31,7.252,16.996,4.554c1.688-2.699-1.329-8.505-9.465-13.57
				c-6.903-4.298-12.892-4.877-14.781-1.238C194.71,148.227,197.382,151.711,203.434,155.652z"/>
			<path fill="#376631" d="M205.181,153.521c3.562,2.443,9.043,4.561,10.091,2.971c1.049-1.588-0.676-5.102-5.465-8.246
				c-4.063-2.671-7.635-3.104-8.817-0.957C200.072,148.957,201.617,151.076,205.181,153.521z"/>
			<path fill="#376631" d="M186.882,160.95c4.679,2.691,11.671,4.878,12.757,2.914c1.085-1.964-1.471-6.047-7.744-9.5
				c-5.322-2.933-9.757-3.226-10.938-0.59C180.04,155.824,182.203,158.259,186.882,160.95z"/>
			<path fill="#6E9F41" d="M210.027,152.744c-0.534,0.813-2.155,0.66-3.62-0.338c-1.463-1.001-2.219-2.473-1.684-3.285
				c0.532-0.814,2.153-0.663,3.617,0.34C209.806,150.463,210.562,151.93,210.027,152.744z"/>
			<path fill="#6E9F41" d="M138.023,188.537c0.293,9.169-1.852,16.237-5.78,16.367c-3.93,0.132-7.353-7.196-7.646-16.364
				c-0.293-9.17,3.298-14.394,7.229-14.526C135.757,173.885,137.73,179.369,138.023,188.537z"/>
			<path fill="#99B040" d="M175.558,197.38c-0.145,0-0.296-0.027-0.441-0.076c-0.729-0.25-1.121-1.053-0.876-1.797
				c0.133-0.422,3.17-10.457-9.862-16.479c-13.436-6.209-30.005,7.791-30.17,7.934c-0.588,0.503-1.467,0.427-1.961-0.173
				c-0.495-0.6-0.42-1.493,0.168-2.001c0.73-0.627,18.723-16.327,33.763-9.376c7.129,3.294,11.204,8.758,12.333,12.653
				c1.309,4.513-1.611,8.276-1.634,8.347C176.684,197.003,176.143,197.38,175.558,197.38z"/>
			<path fill="#447E3B" d="M217.857,208.425c-3.452,8.471-8.27,14.002-11.9,12.46c-3.63-1.541-3.772-9.657-0.323-18.126
				c3.452-8.471,8.844-11.71,12.473-10.17C221.738,194.13,221.31,199.954,217.857,208.425z"/>
			<path fill="#376631" d="M215.953,207.107c-2.038,5.004-4.884,8.271-7.029,7.361c-2.146-0.91-2.23-5.707-0.191-10.71
				c2.039-5.004,5.225-6.918,7.37-6.008C218.246,198.661,217.995,202.103,215.953,207.107z"/>
			<path fill="#6E9F41" d="M211.328,204.717c-0.897,1.777-1.133,3.478-0.525,3.797c0.608,0.321,1.827-0.859,2.726-2.636
				c0.899-1.779,1.134-3.479,0.526-3.799C213.446,201.759,212.226,202.939,211.328,204.717z"/>
			<path fill="#FAA85C" d="M180.835,195.107l-3.194-0.164c-0.195-3.522,0.525-8.728-1.231-8.728c-0.754,0-1.552,1.451-1.422,8.166
				l-0.421,0.167h-2.782h1.391h-1.391l-0.002-0.135c-0.116-5.958,0.695-9.657,2.412-10.991c0.751-0.587,1.689-0.752,2.633-0.468
				C181.332,184.315,180.955,193.316,180.835,195.107z"/>
			<path fill="#376631" d="M186.235,200.98c0.729,8.637-4.734,16.176-12.206,16.834c-7.472,0.657-14.123-5.81-14.856-14.448
				c-0.73-8.64,4.32-12.081,11.793-12.738C178.437,189.968,185.502,192.341,186.235,200.98z"/>
			<path fill="#447E3B" d="M181.748,202.384c-0.285,5.91-4.659,10.494-9.769,10.236c-5.113-0.255-9.023-5.252-8.74-11.16
				c0.283-5.91,4.009-7.762,9.121-7.507C177.47,194.209,182.032,196.478,181.748,202.384z"/>
			<path fill="#447E3B" d="M200.399,181.274c1.601,7.795-1.156,14.979-6.156,16.046c-4.998,1.066-10.074-4.451-11.946-12.182
				c-2.137-8.848,1.401-11.234,6.399-12.301C193.696,171.769,198.803,173.48,200.399,181.274z"/>
			<path fill="#376631" d="M196.861,181.249c1.31,4.641-0.041,9.109-3.017,9.984c-2.975,0.873-6.288-2.229-7.757-6.816
				c-1.686-5.254,0.349-6.859,3.327-7.732C192.389,175.81,195.551,176.61,196.861,181.249z"/>
			<path fill="#6E9F41" d="M174.959,200.639c0.15,1.852-0.917,3.456-2.388,3.584c-1.469,0.127-2.784-1.273-2.938-3.125
				c-0.153-1.854,0.914-3.457,2.387-3.583C173.49,197.388,174.807,198.786,174.959,200.639z"/>
			<path fill="#6E9F41" d="M193.349,181.655c0.411,1.483-0.119,2.933-1.185,3.24c-1.068,0.308-2.265-0.645-2.675-2.125
				c-0.41-1.482,0.12-2.931,1.188-3.24C191.741,179.224,192.939,180.176,193.349,181.655z"/>
			<path fill="#376631" d="M147.81,170.64c-5.129,8.584-4.827,18.316,0.68,21.741c5.499,3.422,14.119-0.759,19.247-9.339
				c5.131-8.582,2.991-13.965-2.512-17.389C159.723,162.228,152.939,162.06,147.81,170.64z"/>
			<path fill="#447E3B" d="M151.864,172.317c-3.335,5.58-3.138,11.906,0.44,14.132c3.578,2.227,9.183-0.49,12.517-6.071
				c3.335-5.579,1.945-9.078-1.633-11.306C159.611,166.847,155.2,166.738,151.864,172.317z"/>
			<path fill="#6E9F41" d="M156.04,174.134c-1.104,1.585-1.073,3.542,0.066,4.368c1.14,0.823,2.959,0.208,4.06-1.377
				c1.104-1.585,1.073-3.54-0.065-4.364C158.958,171.934,157.14,172.549,156.04,174.134z"/>
		</g>
	</g>
	<g id="sansevieria_trifasciata_1_">
		<g id="sansevieria_trifasciata">
			<path fill="#1E331B" d="M29.242,198.516c-0.081-0.579-1.214-15.427,0.97-18.397c2.182-2.971,8.165,17.736,8.165,17.736
				L29.242,198.516z"/>
			<path fill="#294B23" d="M25.159,142.448c0.002-4.516-0.117-8.703,0.694-13.178c0.751-4.129,1.679-8.167,2.873-12.191
				c1.141-3.846,2.728-7.494,3.599-11.424c0.449-2.029,0.062-7.298,0.854-9.173c0.679,0.448,2.937,9.442,3.444,11.682
				c1.048,4.625,1.718,9.437,2.166,14.153c1.111,11.664,0.928,23.189-0.396,34.828c-1.298,11.409-1.45,23.347,0.501,34.7
				c0.373,2.168,0.657,4.645,1.422,6.654c-1.216,0.109-2.468,0.055-3.712,0.167c-1.58,0.144-1.782-0.182-2.393-1.736
				c-2.91-7.402-5.072-15.416-6.25-23.298c-1.014-6.78-1.465-13.639-1.947-20.459C25.739,149.299,25.171,145.457,25.159,142.448z"/>
			<path fill="#877D30" d="M29.381,165.487c-0.142-6.24-1.5-12.423-1.973-18.643c-0.457-5.988-0.177-11.809,0.995-17.7
				c1.147-5.758,2.98-11.316,4.415-16.999c0.705-2.788,1.389-5.639,1.619-8.516c0.093-1.158,0.118-2.333,0.095-3.511
				c-0.561-1.924-1.083-3.458-1.353-3.637c-0.793,1.875-0.405,7.145-0.854,9.173c-0.872,3.93-2.458,7.578-3.599,11.424
				c-1.194,4.025-2.122,8.062-2.873,12.191c-0.811,4.475-0.692,8.662-0.694,13.178c0.012,3.009,0.58,6.851,0.854,10.725
				c0.291,4.1,0.572,8.213,0.968,12.317c0.032,0.104,0.062,0.211,0.095,0.316C27.469,167.052,29.413,166.886,29.381,165.487z"/>
			<path fill="#1E331B" d="M37.467,132.518c0,0,0.573-15.041,2.577-19.569c1.719-3.886,1.737-8.235,1.933-12.469
				c0.098-2.071-0.199-4.651,0.318-6.617c3.508,7.664,4.344,16.748,5.056,25.083c0.604,7.084,0.083,14.41-0.859,21.441
				c-0.639,4.754-2.149,9.182-3.163,13.821c-0.641,2.935-1.173,4.667-3.829,5.905c-1.343,0.626-0.964,0.852-1.774-0.319
				c-1.317-1.901-1.122-5.524-1.26-7.681c-0.231-3.651-0.379-7.189-0.003-10.829C36.77,138.292,37.473,135.546,37.467,132.518z"/>
			<path fill="#376631" d="M41.046,199.113l-5.154-0.146c0,0-9.016-38.409-5.868-59.877c3.149-21.468,3.866-27.528,3.866-27.528
				s6.011,14.676,6.726,45.784C40.754,163.337,41.046,199.113,41.046,199.113z"/>
			<path fill="#AFA133" d="M40.616,157.346c-0.005-0.255-0.012-0.506-0.02-0.756c-0.208-3.428-0.375-6.854-0.486-10.287
				c-1.638-23.548-6.221-34.741-6.221-34.741s-0.716,6.06-3.866,27.528c-1.167,7.966-0.661,18.261,0.438,28.06
				c0.141-0.085,0.281-0.171,0.421-0.257c-0.717-5.003-1.19-9.947-0.847-15.112c0.479-7.2,2.081-14.314,3.252-21.423
				c0.422-2.564,0.872-5.137,1.22-7.72c0.07,0.913,0.144,1.816,0.237,2.704c0.705,6.74,1.42,13.404,1.642,20.184
				c0.444,13.606,1.851,27.146,2.696,40.728c0.267,4.303,0.687,8.589,1.297,12.841l0.665,0.02
				C41.046,199.113,40.754,163.337,40.616,157.346z"/>
			<path fill="#877D30" d="M35.893,198.967l2.004,0.056c-0.579-1.919-1.077-3.868-1.678-5.783c-1.021-3.252-1.58-6.603-2.305-9.945
				c-0.725-3.35-1.548-6.986-2.096-10.372c-0.327-2.031-0.648-4.031-0.933-6.029c-0.141,0.086-0.28,0.172-0.421,0.257
				C32.326,183.77,35.893,198.967,35.893,198.967z"/>
			<path fill="#1E331B" d="M62.565,199.113l4.386-0.146c0,0,0.861-22.346-0.571-27.896C66.38,171.071,58.323,190.499,62.565,199.113
				z"/>
			<path fill="#1E331B" d="M49.061,201.156c-0.286-1.022-2.29-51.112,4.437-64.841c6.728-13.728,8.015-23.951,8.015-23.951
				s2.147,14.311,1.862,25.12c-0.287,10.806-8.731,56.519-7.73,60.46C56.647,201.887,49.061,201.156,49.061,201.156z"/>
			<path fill="#877D30" d="M61.434,126.411c0.1,6.079,0.159,12.119-0.294,18.189c-0.465,6.246-1.254,12.464-2.208,18.655
				c-0.905,5.887-2.091,11.739-2.766,17.658c-0.349,3.076-0.584,6.19-0.611,9.286c-0.011,1.338,0.01,2.731,0.153,4.104
				c1.046-11.901,7.417-47.457,7.666-56.819c0.286-10.809-1.862-25.12-1.862-25.12s-0.121,0.956-0.479,2.668
				c0.083,0.809,0.172,1.618,0.261,2.429C61.626,120.448,61.385,123.414,61.434,126.411z"/>
			<path fill="#294B23" d="M18.283,152.701c1.23,6.229,2.871,11.5,4.243,12.665c0,0,6.529-8.898,3.731-25.97
				C24.848,144.293,22.02,148.95,18.283,152.701z"/>
			<path fill="#376631" d="M26.257,139.396c-0.125-0.77-0.262-1.547-0.427-2.349c0,0-5.552-22.25-8.195-25.486
				c0,0,1.851,11.058-0.527,18.744c-1.353,4.367-0.442,14.207,1.175,22.396C22.02,148.95,24.848,144.293,26.257,139.396z"/>
			<path fill="#DAC82A" d="M20.226,150.573c-0.597-3.161-0.943-6.356-0.998-9.632c-0.155-9.244,1.481-18.986-0.808-28.059
				c-0.281-0.576-0.544-1.027-0.785-1.321c0,0,1.851,11.058-0.527,18.744c-1.353,4.367-0.442,14.207,1.175,22.396
				C18.96,152.021,19.61,151.311,20.226,150.573z"/>
			<path fill="#AFA133" d="M20.226,150.573c-0.616,0.737-1.265,1.448-1.943,2.128c1.23,6.229,2.871,11.5,4.243,12.665
				c0,0,0.568-0.772,1.298-2.3c-0.776-2.063-1.484-4.152-2.104-6.27C21.115,154.729,20.617,152.658,20.226,150.573z"/>
			<path fill="#376631" d="M62.161,169.024c3.348-10.158,7.633-20.173,10.892-29.783c0.795-2.433,1.155-4.947,1.163-7.47
				c-0.1-0.791-0.214-1.583-0.343-2.374c-0.59-3.632-1.226-7.228-3.357-10.299c-0.101,2.229-0.592,4.759-1.063,6.926
				c-0.783,3.608-1.16,7.327-2.104,10.898c-2.235,8.471-6.131,16.076-9.375,24.116c-0.449,1.116-0.894,2.239-1.331,3.37
				C58.197,166.347,60.07,167.873,62.161,169.024z"/>
			<path fill="#294B23" d="M56.642,164.409c-2.646,6.855-4.923,14.033-5.087,21.411c-0.06,2.698-0.178,5.539,0.174,8.209
				c0.361,2.728,1.076,5.462,1.206,8.203c0.854,0.59,2.604,1.43,4.373,1.95c-1.605-11.631,1.007-23.489,4.853-35.158
				C60.07,167.873,58.197,166.347,56.642,164.409z"/>
			<path fill="#44813D" d="M74.215,131.771c-0.007,2.522-0.367,5.037-1.163,7.47c-7.003,20.646-18.747,43.186-15.745,64.941
				c2.131,0.627,4.292,0.781,4.952-0.546c0.456-0.918,0.295-3.411,0.306-4.523c0.031-2.924-0.017-5.787,0.456-8.681
				c1.224-7.5,3.387-14.652,6.011-21.752c1.365-3.696,2.949-7.213,3.709-11.113c0.935-4.783,0.994-9.701,1.598-14.53
				C74.814,139.231,74.688,135.512,74.215,131.771z"/>
			<g>
				<path fill="#6E9F41" d="M63.013,190.491c0.003-0.021,0.003-0.038,0.008-0.059c0.184-1.127,0.395-2.24,0.62-3.354
					c-0.779-0.333-1.544-0.73-2.314-0.979c-1.26-0.412-2.452-0.55-3.506-0.279c-0.171,1.012-0.317,2.024-0.444,3.035
					C59.05,187.838,61.318,189.654,63.013,190.491z"/>
				<path fill="#6E9F41" d="M73.615,150.864c-0.787-0.063-1.572-0.146-2.342-0.354c-0.735-0.197-1.375-0.529-1.985-0.909
					c-0.47,1.237-0.943,2.476-1.418,3.721c1.594,0.842,3.529,1.204,5.327,1.4C73.367,153.441,73.501,152.151,73.615,150.864z"/>
				<path fill="#6E9F41" d="M64.412,183.607c0.296-1.239,0.612-2.47,0.954-3.694c-0.539-0.536-1.112-1.029-1.821-1.341
					c-0.896-0.392-1.715-0.449-2.663-0.583c-1.025-0.143-1.085,0.138-1.316-0.226c-0.292,1.127-0.567,2.257-0.82,3.387
					c1.191,0.212,2.623,0.196,3.803,0.813C63.292,182.351,63.847,182.981,64.412,183.607z"/>
				<path fill="#6E9F41" d="M67.93,160.681c0.454,1.396,1.25,2.72,2.654,3.275c0.078,0.032,0.149,0.047,0.223,0.065
					c0.5-1.332,0.965-2.675,1.354-4.055c-0.61-0.322-1.003-0.687-1.766-1.217C69.197,157.918,67.481,159.304,67.93,160.681z"/>
				<path fill="#6E9F41" d="M63.856,172.826c0.925,0.706,1.889,1.698,2.924,2.375c0.426-1.326,0.866-2.649,1.331-3.971
					c-0.29-0.277-0.58-0.561-0.751-0.666c-1.438-0.896-2.801-0.913-3.812-2.515c-0.223-0.352-0.524-0.553-0.85-0.63
					c-0.457,1.35-0.9,2.701-1.324,4.058c0.16-0.216,0.332-0.418,0.518-0.611C62.365,171.586,62.956,172.14,63.856,172.826z"/>
			</g>
			<path fill="#FDE734" d="M63.891,167.846c1.957-5.226,8.202-21.135,8.599-24.148c0.146-1.119,0.184-2.251,0.196-3.386
				c-7.039,20.353-18.328,42.49-15.378,63.871c1.108,0.326,2.223,0.523,3.132,0.45c-0.194-1.29-0.018-2.666-0.467-3.892
				C56.99,192.593,61.905,173.155,63.891,167.846z"/>
			<path fill="#AFA133" d="M55.786,173.856c1.607-6.947,5.01-13.229,7.78-19.73c2.785-6.539,5.119-13.474,6.777-20.406
				c0.926-3.868,1.402-7.609,1.287-11.59c-0.011-0.36-0.011-0.74-0.009-1.132c-0.318-0.65-0.68-1.286-1.105-1.899
				c-0.101,2.229-0.592,4.759-1.063,6.926c-0.783,3.608-1.16,7.327-2.104,10.898c-2.235,8.471-6.131,16.076-9.375,24.116
				c-3.169,7.862-6.227,16.188-6.418,24.781c-0.06,2.698-0.178,5.539,0.174,8.209c0.361,2.728,1.076,5.462,1.206,8.203
				c0.606,0.418,1.667,0.967,2.865,1.435c-0.521-2.836-0.728-5.712-0.975-8.583C54.227,188.126,54.207,180.687,55.786,173.856z"/>
			<path fill="#44813D" d="M40.631,202.045c2.475,1.836,6.637-0.61,9.248-0.831c0.039-3.081,0.073-6.184,0.009-9.265
				c-0.09-4.52-1.126-8.983-0.904-13.513c0.443-8.993,3.633-17.359,4.95-26.184c1.384-9.278,0.848-19.242-0.085-28.547
				c-0.567-5.665-1.061-11.212-1.06-16.914c0-2.365-0.053-4.729,0.096-7.087c0.127-2.002,0.632-4.083,0.565-6.076
				c-1.71,3.01-4.567,5.92-5.831,9.192c-1.671,4.322-2.825,9.025-3.426,13.619c-0.61,4.651-0.646,9.477-0.358,14.159
				c0.373,6.062-0.277,11.061-2.635,16.679c-2.929,6.971-5.693,13.036-5.732,20.782c-0.034,6.635,1.004,12.984,1.829,19.537
				C37.974,192.969,39.04,196.938,40.631,202.045z"/>
			<g>
				<path fill="#6E9F41" d="M43.234,195.571c2.4-0.071,4.485-0.749,6.668-1.631c-0.004-0.664,0-1.329-0.015-1.991
					c-0.011-0.604-0.041-1.209-0.083-1.813c-0.104,0.042-0.206,0.079-0.32,0.129c-3.555,1.535-6.541,1.604-10.327,1.515
					c-0.417-0.009-0.815-0.003-1.203,0.016c0.233,1.229,0.492,2.419,0.784,3.598C40.176,195.432,41.652,195.616,43.234,195.571z"/>
				<path fill="#6E9F41" d="M38.832,185.274c0.989-0.8,5.341,2.215,6.876,2.309c1.281,0.079,2.557-0.305,3.825-0.418
					c-0.125-1.16-0.258-2.318-0.366-3.482c-1.17,0.148-2.357,0.3-3.459,0.159c-2.973-0.384-6.648-3.993-8.897-0.159
					c-0.007,0.015-0.01,0.029-0.018,0.041c0.065,0.497,0.131,0.993,0.196,1.489C37.452,185.64,38.24,185.755,38.832,185.274z"/>
			</g>
			<path fill="#6E9F41" d="M45.934,169.831c1.494,0.201,2.345-0.262,3.688-0.736c0.238-0.086,0.473-0.167,0.71-0.252
				c0.322-1.528,0.676-3.049,1.039-4.571c-2.14,0.367-3.925,1.791-6.443,1.247c-2.549-0.549-6.592-2.112-9.24-1.019
				c-0.133,1.153-0.214,2.333-0.22,3.559c-0.002,0.282,0.009,0.563,0.011,0.847C39.574,167.388,41.825,169.277,45.934,169.831z"/>
			<path fill="#6E9F41" d="M44.725,178.527c1.265-0.025,2.226-0.176,3.42,0.191c0.284,0.09,0.557,0.223,0.829,0.36
				c0.005-0.215,0.001-0.43,0.011-0.643c0.059-1.191,0.168-2.373,0.314-3.545c-0.271-0.123-0.542-0.229-0.804-0.289
				c-0.998-0.232-1.739-0.092-2.74-0.134c-2.965-0.129-3.23-0.667-5.142-1.636c-1.659-0.845-2.737-1.476-4.625-0.71
				c-0.131,0.07-0.264,0.14-0.396,0.209c0.075,1.324,0.181,2.645,0.311,3.957c0.077-0.019,0.153-0.037,0.23-0.056
				C38.88,175.563,41.496,178.599,44.725,178.527z"/>
			<path fill="#6E9F41" d="M48.669,120.291c0.227,2.63,2.903,3.21,5.173,3.34c-0.113-1.143-0.221-2.279-0.325-3.416
				c-0.812-0.193-1.562-0.5-2.186-1.049C50.409,118.356,48.541,118.803,48.669,120.291z"/>
			<path fill="#6E9F41" d="M47.353,147.153c-1.238,0.223-1.511,2.274-0.361,2.818c2.337,1.103,3.834,3.241,6.603,3.033
				c0.075-0.006,0.147-0.01,0.22-0.014c0.04-0.247,0.083-0.49,0.121-0.738c0.12-0.805,0.208-1.622,0.3-2.438
				c-0.338-0.063-0.68-0.13-1.021-0.226C50.829,148.915,50.174,146.647,47.353,147.153z"/>
			<path fill="#6E9F41" d="M49.516,113.049c1.373-0.156,2.364,0.551,3.523,1c-0.086-1.399-0.147-2.803-0.189-4.211
				c-0.583-0.18-1.045-0.502-1.668-0.596c-0.945-0.145-1.34,0.073-2.209,0.192c-0.414,0.16-0.807,0.362-1.178,0.61
				c-0.873,0.212-1.639,0.054-2.304-0.447c-0.241,0.967-0.454,1.941-0.647,2.916c0.59,0.437,1.19,1.029,1.911,1.135
				C47.837,113.81,48.543,113.158,49.516,113.049z"/>
			<path fill="#6E9F41" d="M45.746,157.521c1.464,1.054,1.923,2.252,3.94,2.456c1.171,0.121,1.576-0.033,2.625,0.362
				c0.307-1.297,0.599-2.601,0.87-3.909c-1.585-0.528-3.104-0.184-4.558-1.259c-1.142-0.845-1.745-1.636-3.207-1.918
				c-1.432-0.277-4.006,0.809-5.064-0.353c-0.461-0.506-1.189-0.333-1.541,0.146c-0.061,0.153-0.123,0.308-0.182,0.462
				c-0.007,0.043-0.022,0.086-0.023,0.132C38.506,158.343,43.318,155.769,45.746,157.521z"/>
			<path fill="#6E9F41" d="M51.242,141.988c1.327,1.503,1.8,1.79,3.421,2.43c0.066-1.445,0.094-2.899,0.099-4.355
				c-0.201-0.15-0.401-0.316-0.597-0.523c-0.501-0.533-0.69-1.4-1.246-1.968c-0.96-0.98-2.07-1.378-3.396-1.606
				c-0.801-0.136-2.813,0.093-3.446-0.286c-1.688-2.027-1.56-3.34,0.381-3.932c0.859-0.93,1.846-1.079,2.959-0.445
				c1.68,0.211,2.552,0.981,4.453,0.731c0.216-0.029,0.432-0.065,0.646-0.106c-0.074-1.251-0.161-2.497-0.263-3.734
				c-0.988,0.271-1.916,0.479-3.132,0.136c-0.818-0.229-1.352-0.759-2.235-0.869c-1.672-0.206-3.592,0.485-5.126,1.672
				c0.024,0.489,0.047,0.979,0.077,1.467c0.176,2.867,0.113,5.493-0.24,8.063c0.128,0.08,0.255,0.161,0.39,0.229
				C47.129,140.485,48.339,138.699,51.242,141.988z"/>
			<path fill="#FDE734" d="M38.601,166.387c0.51-4.107,1.649-8.049,3.123-11.897c1.48-3.865,3.135-7.755,3.754-11.886
				c0.601-4,0.417-8.082,0.4-12.114c-0.015-4.417-0.025-8.844,0.374-13.249c0.413-4.554,1.42-8.913,3.072-13.163
				c1.298-3.337,2.793-6.589,4.127-9.907c0.002-0.182,0.005-0.363,0-0.542c-1.71,3.01-4.567,5.92-5.831,9.192
				c-1.671,4.322-2.825,9.025-3.426,13.619c-0.61,4.651-0.646,9.477-0.358,14.159c0.373,6.062-0.277,11.061-2.635,16.679
				c-2.929,6.971-5.693,13.036-5.732,20.782c-0.034,6.635,1.004,12.984,1.829,19.537c0.676,5.373,1.741,9.343,3.333,14.449
				c1.021,0.759,2.332,0.784,3.701,0.545c-1.575-3.602-2.65-7.311-3.472-11.167C39.105,183.181,37.553,174.845,38.601,166.387z"/>
			<path fill="#44813D" d="M30.059,202.854c-4.164-5.056-6.533-12.217-9.04-18.228c-2.242-5.376-2.276-12.969-0.988-18.642
				c0.598-2.635,1.91-4.803,3.051-7.199c1.231-2.587,2.081-5.342,2.686-8.146c0.993-4.605-0.19-9.017,0.061-13.591
				c1.94,6.878,4.916,13.323,6.077,20.46c1.378,8.453-0.351,16.979-1.452,25.346c-0.83,6.312-0.988,11.796,1.357,17.71
				C32.578,202.49,32.453,203.017,30.059,202.854z"/>
			<g>
				<path fill="#6E9F41" d="M28.816,163.332c0.955,0.427,2.269,0.587,3.599,0.769c-0.003-1.207-0.048-2.412-0.148-3.616
					c-0.935-0.192-1.858-0.387-2.646-0.969c-1.095-0.811-1.691-2.163-2.77-3.019c-0.741-0.591-1.55-0.963-2.388-1.147
					c-0.375,1.094-0.799,2.173-1.288,3.223C25.474,159.633,26.253,162.185,28.816,163.332z"/>
				<path fill="#6E9F41" d="M28.833,171.945c1.087,0.113,2.076,0.194,3.058,0.343c0.161-1.395,0.293-2.793,0.386-4.19
					c-2.2-0.291-3.989-0.021-6.254-1.003c-2.192-0.953-4.136-1.818-6-1.069c-0.21,0.93-0.381,1.913-0.517,2.928
					C22.063,167.552,25.972,171.644,28.833,171.945z"/>
				<path fill="#6E9F41" d="M25.998,155.144c1.929,0.373,3.374,0.081,5.16-0.756c0.039-0.017,0.064-0.049,0.099-0.072
					c-0.171-0.727-0.351-1.448-0.55-2.167c-1.257-0.172-2.517-0.271-3.773-0.466c-0.47-0.074-0.924-0.141-1.373-0.17
					c-0.288,1.217-0.62,2.421-1.016,3.605C24.955,155.033,25.425,155.033,25.998,155.144z"/>
				<path fill="#6E9F41" d="M29.804,192.982c0.071,0.014,0.148,0.021,0.222,0.032c-0.1-1.111-0.138-2.226-0.125-3.357
					c-0.184-0.012-0.367-0.028-0.551-0.065c-2.368-0.488-3.78-0.396-5.757,1.279c-0.012,0.011-0.023,0.024-0.034,0.033
					c0.429,1.048,0.867,2.096,1.331,3.132C26.348,192.862,27.547,192.559,29.804,192.982z"/>
				<path fill="#6E9F41" d="M23.126,178.418c1.086,0.538,1.988,0.536,3.055-0.039c0.586-0.314,0.832-1.218,0.459-1.789
					c-1.691-2.593-4.602-3.3-7.461-2.898c-0.01,1.311,0.047,2.628,0.18,3.919c0.157-0.016,0.317-0.036,0.47-0.053
					C21.26,177.405,21.908,177.816,23.126,178.418z"/>
				<path fill="#6E9F41" d="M30.261,184.447c0.059-0.526,0.123-1.058,0.194-1.594c0.086-0.657,0.177-1.316,0.27-1.974
					c-0.395-0.024-0.78-0.051-1.137-0.073c-2.41-0.148-3.781,0.03-6.058,1.264c-0.891,0.481-1.885,1.01-2.875,1.604
					c0.116,0.322,0.235,0.642,0.364,0.952c0.359,0.862,0.719,1.751,1.078,2.652c1.054-0.699,2.166-1.338,3.3-1.951
					C26.84,184.546,28.521,184.455,30.261,184.447z"/>
			</g>
			<path fill="#FDE734" d="M22.466,167.687c1.662-5.441,3.812-10.5,4.368-16.24c0.34-3.499,0.426-7.218,0.087-10.846
				c-0.385-1.177-0.755-2.357-1.091-3.553c-0.251,4.574,0.932,8.985-0.061,13.591c-0.605,2.805-1.455,5.56-2.686,8.146
				c-1.141,2.396-2.453,4.564-3.051,7.199c-1.289,5.673-1.254,13.266,0.988,18.642c0.032,0.075,0.063,0.152,0.094,0.229
				c-0.024-0.129-0.051-0.256-0.074-0.383C20.005,178.752,20.783,173.193,22.466,167.687z"/>
		</g>
		<g>
			<path fill="#8E97A8" d="M28.659,229.822c2.926,3.837,7.479,6.009,12.243,6.009h9.207c4.763,0,9.317-2.172,12.243-6.009
				c4.506-5.908,6.169-14.182,6.735-20.65c-13.128,9.648-27.702,16.646-42.878,16.693C26.915,227.26,27.722,228.594,28.659,229.822z
				"/>
			<path fill="#B2BDD3" d="M69.231,199.113H21.778c0,0-1.278,15.482,4.43,26.752c15.176-0.047,29.75-7.045,42.878-16.693
				C69.588,203.434,69.231,199.113,69.231,199.113z"/>
			<path fill="#8E97A8" d="M70.082,201.209H20.928c-1.257,0-2.276-1.04-2.276-2.321l0,0c0-1.28,1.02-2.319,2.276-2.319h49.154
				c1.256,0,2.275,1.039,2.275,2.319l0,0C72.357,200.169,71.338,201.209,70.082,201.209z"/>
		</g>
	</g>
</g>
</svg>
