<?xml version="1.0" encoding="utf-8"?>
<!-- Generator: Adobe Illustrator 16.2.0, SVG Export Plug-In . SVG Version: 6.00 Build 0)  -->
<!DOCTYPE svg PUBLIC "-//W3C//DTD SVG 1.1//EN" "http://www.w3.org/Graphics/SVG/1.1/DTD/svg11.dtd">
<svg version="1.1" id="Layer_1" xmlns="http://www.w3.org/2000/svg" xmlns:xlink="http://www.w3.org/1999/xlink" x="0px" y="0px"
	 width="103.5px" height="42.5px" viewBox="0 0 103.5 42.5" enable-background="new 0 0 103.5 42.5" xml:space="preserve">
<g>
	<path d="M11.632,31.906v-1.713l6.184-0.01V35.6c-0.949,0.756-1.928,1.325-2.938,1.707c-1.009,0.383-2.044,0.574-3.106,0.574
		c-1.434,0-2.737-0.309-3.909-0.922c-1.171-0.613-2.056-1.502-2.654-2.663c-0.597-1.162-0.896-2.46-0.896-3.894
		c0-1.422,0.297-2.748,0.891-3.979c0.594-1.231,1.449-2.146,2.564-2.743c1.115-0.597,2.4-0.896,3.854-0.896
		c1.055,0,2.01,0.172,2.863,0.514c0.853,0.343,1.521,0.817,2.006,1.429c0.484,0.61,0.853,1.407,1.105,2.391l-1.743,0.479
		c-0.219-0.744-0.491-1.328-0.817-1.753c-0.325-0.425-0.79-0.766-1.394-1.021c-0.604-0.256-1.274-0.385-2.011-0.385
		c-0.883,0-1.646,0.136-2.29,0.403c-0.644,0.269-1.164,0.622-1.559,1.062c-0.395,0.438-0.702,0.92-0.921,1.443
		c-0.372,0.902-0.558,1.883-0.558,2.938c0,1.301,0.224,2.39,0.672,3.266c0.448,0.876,1.101,1.526,1.957,1.952
		c0.856,0.425,1.766,0.637,2.729,0.637c0.836,0,1.653-0.16,2.45-0.481c0.796-0.322,1.401-0.666,1.812-1.031v-2.718h-4.291V31.906z"
		/>
	<path d="M20.487,37.881l5.606-14.599h2.081l5.975,14.599h-2.201l-1.703-4.422h-6.104l-1.604,4.422H20.487z M24.7,31.885h4.949
		l-1.523-4.043c-0.465-1.228-0.81-2.236-1.036-3.025c-0.186,0.936-0.448,1.865-0.787,2.787L24.7,31.885z"/>
	<path d="M37.151,37.881V23.282h6.472c1.301,0,2.291,0.132,2.968,0.394c0.677,0.264,1.218,0.727,1.623,1.391
		c0.405,0.662,0.607,1.396,0.607,2.199c0,1.035-0.335,1.908-1.006,2.619c-0.67,0.711-1.706,1.161-3.107,1.354
		c0.511,0.245,0.899,0.487,1.165,0.728c0.564,0.518,1.099,1.165,1.603,1.941l2.54,3.974h-2.43l-1.932-3.038
		c-0.564-0.877-1.029-1.547-1.394-2.012c-0.365-0.465-0.692-0.79-0.981-0.977c-0.289-0.187-0.583-0.314-0.881-0.389
		c-0.219-0.047-0.578-0.068-1.075-0.068h-2.241v6.482H37.151L37.151,37.881z M39.083,29.725h4.152c0.883,0,1.573-0.092,2.071-0.273
		c0.498-0.184,0.876-0.475,1.135-0.876c0.259-0.401,0.388-0.839,0.388-1.31c0-0.69-0.25-1.259-0.752-1.703
		c-0.501-0.444-1.292-0.668-2.375-0.668h-4.62L39.083,29.725L39.083,29.725z"/>
	<path d="M52.012,25.811v5.268c0,0.883,0.083,1.665,0.25,2.346c0.165,0.68,0.409,1.262,0.731,1.742
		c0.321,0.48,0.763,0.925,1.323,1.329c0.562,0.405,1.271,0.737,2.127,0.997c0.856,0.258,1.839,0.389,2.947,0.389
		c1.301,0,2.457-0.191,3.471-0.574c1.012-0.381,1.844-0.955,2.494-1.727c0.504-0.591,0.853-1.305,1.045-2.141
		c0.139-0.599,0.209-1.465,0.209-2.6v-5.029H52.012z M64.887,30.811c0,1.148-0.101,1.981-0.3,2.5
		c-0.278,0.717-0.828,1.325-1.647,1.826c-0.82,0.502-1.994,0.752-3.521,0.752c-1.103,0-2.04-0.128-2.813-0.383
		c-0.772-0.256-1.389-0.611-1.847-1.07c-0.325-0.326-0.577-0.763-0.757-1.31c-0.179-0.548-0.27-1.303-0.27-2.267v-3.115h11.154
		V30.811z"/>
	<path d="M69.471,37.881V23.282h10.555v1.723h-8.623v4.472h8.076v1.713h-8.076v4.97h8.961v1.723L69.471,37.881L69.471,37.881z"/>
	<path d="M84.439,37.881V23.282h1.981l7.667,11.462V23.282h1.852v14.599H93.96l-7.667-11.472v11.472H84.439z"/>
	<g id="ficus_elastica">
		<path fill="#44813D" d="M61.252,21.517c0,0-1.629,1.097-1.777,1.356l0.063,1.197c0,0,1.443-1.926,1.962-2.221L61.252,21.517z"/>
		<path fill="#1E331B" d="M63.34,8.526c0.006-0.085-0.143-3.543-2.002-4.897c-0.104-0.075-0.195-0.163-0.277-0.262
			c-0.146-0.177-0.375-0.442-0.488-0.49c0,0,0,0.004-0.002,0.013c-0.053,0.337-0.228,0.64-0.485,0.862
			c-0.313,0.268-0.888,0.529-1.158,1.381c-0.403,1.265-0.465,2.588,0.325,3.736c0.459,0.668,1.652,3.07,1.652,3.07
			S63.305,8.929,63.34,8.526z"/>
		<path fill="#284822" d="M61.793,8.855c-0.023,0.014-0.043,0.021-0.066,0.023c0-0.036-0.018-0.072-0.06-0.095
			c-0.007-0.005-0.017-0.008-0.022-0.014c0.004-0.061,0.01-0.121,0.013-0.182c0.382-0.286,0.687-0.646,0.956-1.038
			c0.172-0.253,0.305-0.536,0.478-0.792c0.026,0.113,0.048,0.222,0.07,0.328C62.807,7.756,62.465,8.408,61.793,8.855z"/>
		<path fill="#284822" d="M61.557,6.577c-0.009,0.008-0.02,0.015-0.027,0.021c-0.02-0.119-0.038-0.238-0.061-0.356
			c0.293-0.318,0.516-0.688,0.703-1.076c0.063-0.126,0.113-0.258,0.166-0.391c0.053,0.094,0.104,0.188,0.152,0.284
			C62.281,5.617,62.032,6.146,61.557,6.577z"/>
		<path fill="#284822" d="M61.34,5.376c-0.001-0.05-0.015-0.094-0.043-0.118c-0.011-0.008-0.023-0.017-0.033-0.025
			c-0.014-0.056-0.025-0.112-0.041-0.167c0.256-0.288,0.461-0.615,0.635-0.959c0.065,0.074,0.129,0.151,0.188,0.231
			C61.876,4.715,61.661,5.069,61.34,5.376z"/>
		<path fill="#284822" d="M61.091,4.534c-0.03-0.122-0.062-0.244-0.092-0.366c0.13-0.167,0.243-0.347,0.347-0.533
			c0.078,0.058,0.153,0.12,0.225,0.184C61.443,4.072,61.291,4.313,61.091,4.534z"/>
		<path fill="#284822" d="M60.954,3.955c0.014,0.124,0.026,0.25,0.042,0.374C60.671,4.16,60.4,3.937,60.152,3.688
			c0.065-0.064,0.125-0.134,0.178-0.208C60.525,3.655,60.732,3.816,60.954,3.955z"/>
		<path fill="#284822" d="M61.661,7.761c-0.009-0.119-0.017-0.238-0.03-0.357c0.271-0.231,0.491-0.601,0.674-0.883
			c0.176-0.271,0.305-0.568,0.455-0.854c0.047,0.125,0.094,0.25,0.131,0.377c-0.117,0.282-0.257,0.554-0.43,0.811
			C62.238,7.181,62.014,7.566,61.661,7.761z"/>
		<path fill="#415F2C" d="M61.311,9.713c0.123,0.061,0.25,0.094,0.371,0.157c0.11,0.059,0.07,0.22-0.058,0.212
			c-0.739-0.042-1.356-0.571-1.953-0.971c-0.155-0.105-0.315-0.213-0.472-0.325c-0.165-0.253-0.289-0.514-0.379-0.78
			C59.604,8.645,60.402,9.261,61.311,9.713z"/>
		<path fill="#415F2C" d="M61.389,10.599c0.121,0.06,0.25,0.093,0.368,0.156c0.113,0.059,0.073,0.22-0.056,0.212
			c-0.739-0.041-1.357-0.571-1.952-0.971c-0.157-0.105-0.315-0.213-0.474-0.324c-0.164-0.253-0.289-0.514-0.377-0.781
			C59.68,9.53,60.479,10.146,61.389,10.599z"/>
		<path fill="#415F2C" d="M61.307,8.609c0.109,0.062,0.228,0.1,0.338,0.16c0.006,0.005,0.017,0.008,0.022,0.014
			c0.042,0.023,0.06,0.06,0.06,0.095C61.73,8.94,61.682,9,61.602,8.992c-0.735-0.074-1.373-0.603-1.949-1.029
			c-0.346-0.256-0.688-0.531-1.004-0.833c-0.014-0.167-0.016-0.337-0.008-0.507C59.463,7.409,60.322,8.064,61.307,8.609z"/>
		<path fill="#284822" d="M61.322,7.614c0.115,0.074,0.238,0.12,0.352,0.196c0.104,0.071,0.045,0.226-0.081,0.205
			c-0.729-0.122-1.331-0.69-1.878-1.153c-0.344-0.292-0.681-0.604-0.988-0.942c0.026-0.144,0.06-0.286,0.097-0.43
			C59.583,6.313,60.389,7.014,61.322,7.614z"/>
		<path fill="#284822" d="M61.207,6.417c0.109,0.081,0.229,0.136,0.336,0.219c0.1,0.077,0.027,0.389-0.089,0.335
			c-0.733-0.337-1.286-0.913-1.802-1.412c-0.219-0.21-0.435-0.431-0.639-0.661c0.059-0.13,0.123-0.244,0.191-0.344
			C59.811,5.249,60.462,5.865,61.207,6.417z"/>
		<path fill="#284822" d="M61.264,5.234c0.01,0.008,0.022,0.017,0.033,0.025c0.028,0.024,0.042,0.068,0.043,0.118
			c0.003,0.116-0.059,0.255-0.141,0.216c-0.692-0.337-1.213-0.888-1.697-1.381c0.094-0.088,0.189-0.163,0.28-0.23
			c0.368,0.374,0.76,0.723,1.183,1.051C61.063,5.107,61.166,5.162,61.264,5.234z"/>
		<path fill="#1B2A18" d="M60.575,2.878c0.036,0.016,0.082,0.052,0.133,0.1c0.242,0.677,1.278,3.83,1.172,7.71
			c-0.065,0.083-0.294,0.381-0.354,0.46C61.706,7.06,60.779,3.461,60.575,2.878z"/>
		<path fill="#2A4E24" d="M61.18,8.875c0.045-0.072,2.291-2.707,4.59-2.631c0.127,0.004,0.252-0.008,0.379-0.036
			c0.223-0.051,0.567-0.118,0.688-0.086c0,0-0.003,0.003-0.007,0.012c-0.166,0.298-0.214,0.644-0.146,0.978
			c0.08,0.405,0.373,0.964,0.063,1.802c-0.461,1.246-1.225,2.327-2.553,2.747C63.42,11.905,61,13.065,61,13.065
			S60.958,9.214,61.18,8.875z"/>
		<path fill="#415F2C" d="M62.195,10.085c0.008,0.024,0.021,0.043,0.037,0.059c0.022-0.028,0.062-0.046,0.107-0.039
			c0.008,0,0.018,0.003,0.026,0.005c0.032-0.051,0.065-0.103,0.102-0.154c-0.125-0.458-0.145-0.931-0.114-1.404
			c0.019-0.305,0.086-0.611,0.11-0.917c-0.09,0.072-0.176,0.145-0.259,0.215C62.072,8.594,61.939,9.318,62.195,10.085z"/>
		<path fill="#415F2C" d="M63.785,8.435c0,0.012,0.003,0.022,0.006,0.032c0.09-0.082,0.178-0.164,0.266-0.244
			c-0.033-0.429,0.019-0.859,0.109-1.281c0.027-0.137,0.068-0.273,0.109-0.409c-0.1,0.039-0.197,0.083-0.295,0.129
			C63.801,7.231,63.674,7.801,63.785,8.435z"/>
		<path fill="#415F2C" d="M64.693,7.62c0.031-0.038,0.068-0.065,0.105-0.065c0.014,0,0.028,0,0.042,0
			c0.043-0.036,0.091-0.072,0.134-0.108c-0.023-0.384,0.016-0.767,0.09-1.146c-0.098,0.018-0.193,0.041-0.291,0.066
			C64.678,6.77,64.628,7.181,64.693,7.62z"/>
		<path fill="#415F2C" d="M65.404,7.108c0.102-0.078,0.201-0.154,0.3-0.232c0.003-0.211,0.022-0.423,0.055-0.633
			c-0.098-0.003-0.194,0-0.291,0.006C65.413,6.528,65.385,6.812,65.404,7.108z"/>
		<path fill="#415F2C" d="M65.873,6.736c-0.089,0.09-0.176,0.18-0.266,0.271c0.361,0.066,0.711,0.057,1.059,0.013
			c-0.01-0.091-0.018-0.183-0.01-0.273C66.395,6.763,66.132,6.763,65.873,6.736z"/>
		<path fill="#415F2C" d="M62.975,9.304c0.078-0.09,0.159-0.178,0.239-0.265c-0.069-0.35-0.017-0.774,0.013-1.109
			c0.028-0.322,0.11-0.636,0.168-0.954c-0.115,0.07-0.228,0.142-0.336,0.216C62.98,7.488,62.922,7.789,62.9,8.098
			C62.875,8.491,62.816,8.933,62.975,9.304z"/>
		<path fill="#415F2C" d="M62.049,11.058c-0.133-0.027-0.254-0.079-0.388-0.103c-0.123-0.023-0.19,0.129-0.086,0.203
			c0.608,0.422,1.422,0.384,2.138,0.436c0.188,0.013,0.38,0.025,0.571,0.033c0.286-0.098,0.544-0.226,0.778-0.382
			C64.055,11.266,63.043,11.261,62.049,11.058z"/>
		<path fill="#415F2C" d="M61.443,11.709c-0.133-0.028-0.254-0.08-0.389-0.103c-0.123-0.023-0.191,0.128-0.084,0.201
			c0.606,0.423,1.42,0.385,2.137,0.435c0.188,0.013,0.379,0.026,0.572,0.035c0.285-0.098,0.543-0.226,0.777-0.382
			C63.448,11.917,62.438,11.911,61.443,11.709z"/>
		<path fill="#415F2C" d="M62.73,10.19c-0.125-0.019-0.24-0.06-0.364-0.081c-0.009-0.001-0.019-0.004-0.026-0.005
			c-0.046-0.007-0.084,0.011-0.107,0.039c-0.041,0.046-0.037,0.124,0.029,0.167c0.627,0.394,1.454,0.369,2.172,0.388
			c0.43,0.011,0.869,0.003,1.305-0.039c0.113-0.125,0.219-0.257,0.316-0.396C64.922,10.376,63.841,10.365,62.73,10.19z"/>
		<path fill="#415F2C" d="M63.33,9.396c-0.135-0.013-0.26-0.052-0.395-0.061c-0.127-0.009-0.177,0.149-0.063,0.21
			c0.649,0.353,1.472,0.273,2.188,0.245c0.451-0.019,0.908-0.058,1.359-0.135c0.066-0.129,0.129-0.262,0.186-0.398
			C65.501,9.439,64.436,9.496,63.33,9.396z"/>
		<path fill="#415F2C" d="M64.158,8.522c-0.137-0.004-0.264-0.034-0.4-0.035c-0.126,0-0.262,0.29-0.136,0.319
			c0.787,0.187,1.575,0.07,2.287-0.005c0.302-0.033,0.606-0.073,0.909-0.129c0.037-0.138,0.056-0.268,0.063-0.389
			C65.977,8.46,65.084,8.546,64.158,8.522z"/>
		<path fill="#415F2C" d="M64.84,7.555c-0.013,0-0.027,0-0.042,0c-0.038,0-0.075,0.028-0.106,0.065
			c-0.074,0.09-0.11,0.238-0.021,0.257c0.754,0.16,1.502,0.045,2.188-0.046c-0.02-0.127-0.049-0.246-0.08-0.354
			c-0.521,0.068-1.043,0.103-1.579,0.102C65.076,7.579,64.961,7.558,64.84,7.555z"/>
		<path fill="#233D1F" d="M66.832,6.12c-0.04-0.009-0.096-0.009-0.166-0.002c-0.607,0.385-3.361,2.234-5.665,5.359
			c-0.001,0.106-0.002,0.481-0.003,0.581C63.37,8.723,66.311,6.454,66.832,6.12z"/>
		<path fill="#A76653" d="M59.836,26.796c-0.236-1.683-0.193-3.394-0.066-5.083c0.146-1.932,0.326-3.888,0.326-5.829
			c0.021-0.839-0.015-1.676-0.015-2.513c-0.037-0.431-0.63-0.431-0.669,0c-0.323,3.545-1.043,7.073-0.952,10.648
			c0.028,1.162,0.056,2.326,0.171,3.487c0.01,0.101-0.061,0.162-0.068,0.259h1.364C59.888,27.419,59.88,27.105,59.836,26.796z"/>
		<g>
			<path fill="#6E9F41" d="M57.379,18.311c-1.439-1.231-3.229-2.081-5.217-1.847C53.251,18.221,55.393,18.595,57.379,18.311z"/>
			<path fill="#44813D" d="M57.379,18.311c-1.986,0.284-4.127-0.089-5.217-1.847c-0.716,0.084-1.459,0.31-2.221,0.71
				c0,0,0.761,0.071,1.307,0.335c0.583,0.075,1.345,0.3,2.292,0.838c1.687,0.956,3.229,2.646,4.089,3.688
				c0.008-0.006,0.014-0.008,0.021-0.01c1,0,2.289-1.115,0.555-2.932C57.945,18.82,57.668,18.56,57.379,18.311z"/>
			<path fill="#2A4E24" d="M53.54,18.347c-0.947-0.538-1.708-0.763-2.292-0.838c0.226,0.108,0.416,0.25,0.5,0.433
				c0.284,0.624,2.682,5.881,5.881,4.093C56.771,20.993,55.227,19.303,53.54,18.347z"/>
		</g>
		<path fill="#AF9D57" d="M59.148,23.574c0,0.145-0.047,0.287-0.143,0.408c-0.193,0.248-0.583,0.199-0.711-0.086
			c-0.188-0.418-0.496-1.011-0.975-1.709c-0.36-0.525-0.816-1.111-1.394-1.729c-1.42-1.524-3.221-2.307-4.275-2.662
			c-0.18-0.209-0.506-0.354-0.826-0.448l0,0c0.031,0,3.16,0.312,5.408,2.722c1.434,1.537,2.322,2.556,2.762,3.082
			C59.098,23.273,59.148,23.422,59.148,23.574z"/>
		<path fill="#2A4E24" d="M51.003,11.326c0,0,0.614-0.564,2.597-0.476c2.112,0.094,3.01,0.54,3.998,1.808
			c1.648,2.116,0.869,3.684,0.869,3.684l-2.119-2.147l-3.387-2.419C52.961,11.775,51.71,11.189,51.003,11.326z"/>
		<path fill="#415F2C" d="M58.023,15.895l0.442,0.448c0,0,0.448-0.903-0.055-2.264c-0.035,0.378-0.083,0.757-0.179,1.135
			C58.174,15.443,58.102,15.668,58.023,15.895z"/>
		<path fill="#415F2C" d="M52.986,11.792l0.611,0.438c-0.022-0.322-0.065-0.644-0.104-0.953c-0.02-0.148-0.043-0.292-0.071-0.434
			c-0.194-0.005-0.375-0.003-0.542,0.002c0.028,0.16,0.053,0.317,0.067,0.477C52.963,11.48,52.975,11.636,52.986,11.792z"/>
		<path fill="#415F2C" d="M52.482,11.58c-0.021-0.093-0.041-0.183-0.062-0.272c-0.032-0.143-0.071-0.279-0.112-0.414
			c-0.203,0.027-0.377,0.061-0.527,0.099c0.038,0.133,0.072,0.268,0.098,0.402C52.095,11.447,52.307,11.517,52.482,11.58z"/>
		<path fill="#415F2C" d="M54.129,12.608l0.581,0.417c-0.019-0.702-0.087-1.412-0.219-2.105c-0.164-0.02-0.335-0.037-0.519-0.049
			c0.039,0.276,0.071,0.553,0.096,0.832C54.096,12.001,54.107,12.306,54.129,12.608z"/>
		<path fill="#415F2C" d="M56.396,12.954c-0.021,0.392-0.082,0.785-0.14,1.177l0.089,0.064l0.504,0.51
			c0.109-0.636,0.148-1.296,0.157-1.917c0.005-0.295-0.017-0.574-0.058-0.846c-0.203-0.188-0.414-0.345-0.643-0.478
			C56.369,11.955,56.423,12.446,56.396,12.954z"/>
		<path fill="#415F2C" d="M57.121,14.979l0.535,0.541c0.146-0.501,0.251-1.016,0.336-1.507c0.039-0.229,0.061-0.451,0.068-0.668
			c-0.127-0.221-0.279-0.45-0.463-0.686c-0.031-0.04-0.063-0.08-0.093-0.116c-0.015,0.513-0.034,1.024-0.144,1.54
			C57.299,14.384,57.212,14.681,57.121,14.979z"/>
		<path fill="#415F2C" d="M55.188,13.365l0.56,0.401c0.032-0.478,0.024-0.964,0.011-1.42c-0.012-0.394-0.052-0.787-0.107-1.179
			c-0.164-0.056-0.336-0.103-0.521-0.143c0.042,0.402,0.082,0.804,0.09,1.209C55.227,12.612,55.21,12.99,55.188,13.365z"/>
		<path fill="#CAB564" d="M58.113,16.654c0,0,0.695,0.919,0.75,1.336c0,0,0.408,0.015,0.393-0.432
			c-0.018-0.446-0.789-1.217-0.789-1.217S58.186,16.243,58.113,16.654z"/>
		<path fill="#6E9F41" d="M56.916,13.594c-0.146-0.183-0.301-0.372-0.475-0.569c-0.68-0.775-1.6-1.208-2.49-1.447
			C54.516,12.709,55.666,13.332,56.916,13.594z"/>
		<path fill="#44813D" d="M53.951,11.578c-1.518-0.408-2.948-0.252-2.948-0.252c3.412,0.775,7.11,5.329,7.11,5.329
			c0.027-0.163,0.354-0.312,0.354-0.312s-0.16-1.005-1.551-2.748C55.666,13.332,54.516,12.709,53.951,11.578z"/>
		<g>
			<path fill="#B0CC4C" d="M59.275,5.133c-0.402-0.25-0.774-0.31-1.096-0.271c0.266,1.894,1.736,3.379,3.478,4.032
				C61.473,7.552,60.605,5.957,59.275,5.133z"/>
			<path fill="#6E9F41" d="M58.18,4.862c-0.699,0.084-1.166,0.636-1.236,0.723c0.761,1.053,1.625,2.572,2.125,4.511
				c0.473,1.831,0.63,3.502,0.662,4.778c0.006,0,0.013,0.002,0.02,0.002c2.316,0.053,2.082-4.541,1.92-5.899
				c-0.001-0.028-0.008-0.056-0.012-0.083C59.917,8.241,58.445,6.756,58.18,4.862z"/>
			<path fill="#44813D" d="M56.941,5.585c-0.006,0.008-0.01,0.012-0.01,0.012c-1.306-0.017-1.733,1.27-1.662,2.932
				c0.071,1.658,2.151,6.265,4.459,6.344c-0.033-1.276-0.188-2.947-0.662-4.778C58.568,8.157,57.703,6.638,56.941,5.585z"/>
		</g>
		<path fill="#5C4D35" d="M60.063,14.92c-0.045-0.686,0.082-1.764-0.524-3.949c-0.745-2.688-1.918-4.82-2.584-5.399
			c-0.013,0.015-0.021,0.025-0.021,0.025c-0.039,0-0.078,0.001-0.115,0.003c0.104,0.15,0.252,0.373,0.373,0.608
			c0.391,0.77,1.547,3.051,1.877,4.921c0.146,0.832,0.211,1.572,0.228,2.209c0.021,0.847-0.043,1.512-0.114,1.965
			c-0.047,0.305,0.244,0.558,0.541,0.461C59.87,15.717,60.102,15.524,60.063,14.92z"/>
		<g>
			<path fill="#6E9F41" d="M66.789,11.119c-0.713-0.349-2.012,0.086-2.536,0.232c-0.562,0.156-1.116,0.338-1.646,0.581
				C63.938,12.665,65.408,12.034,66.789,11.119z"/>
			<path fill="#44813D" d="M62.605,11.931c-0.148,0.068-0.295,0.138-0.438,0.216c-0.611,0.33-1.244,0.83-1.711,1.434
				c-0.723,0.933-1.064,2.257-0.186,3.218c0.188,0.208,0.42,0.37,0.676,0.486c0.201,0.09,0.519,0.183,0.841,0.196
				c0.585-0.974,1.644-2.737,1.955-3.279c0.437-0.76,3.317-2.878,3.317-2.878l0,0c-0.076-0.086-0.17-0.154-0.272-0.205
				C65.408,12.034,63.938,12.665,62.605,11.931z"/>
			<path fill="#44813D" d="M62.885,17.929c1.155-0.003,2.672-1.401,3.147-1.935c0.122-0.138,0.231-0.286,0.335-0.435
				C64.837,15.798,63.415,16.495,62.885,17.929z"/>
			<path fill="#2A4E24" d="M67.587,12.13c-0.058-0.262-0.26-0.702-0.526-0.807l0,0c0,0-2.881,2.118-3.316,2.878
				c-0.313,0.542-1.37,2.305-1.955,3.279c0.061,0.003,0.121,0.003,0.184,0.001c0.244,0.32,0.563,0.447,0.913,0.447
				c0.53-1.434,1.952-2.131,3.482-2.37c0.226-0.335,0.411-0.694,0.601-1.056C67.333,13.805,67.766,12.947,67.587,12.13z"/>
		</g>
		<path fill="#5C4D35" d="M67.034,11.299c-0.345,0.25-0.729,0.457-1.089,0.689c-0.887,0.581-1.688,1.291-2.379,2.094
			c-0.719,0.835-1.248,1.763-1.783,2.722c-0.19,0.342-0.391,0.684-0.616,1.007c-0.231,0.334-0.535,0.726-0.897,0.925
			c-0.308,0.167-1.281,0.498-0.758,0.999c0.424,0.408,1.284-0.325,1.592-0.601c0.605-0.541,1.002-1.256,1.375-1.968
			c0.432-0.82,0.84-1.649,1.354-2.423c0.803-1.205,1.893-2.068,2.934-3.044c0.07-0.066,0.227-0.249,0.313-0.365
			c-0.008-0.003-0.012-0.007-0.018-0.01C67.051,11.315,67.042,11.307,67.034,11.299z"/>
		<path fill="#2A4E24" d="M61.221,21.718c0,0,0.725,2.501,4.176,0.511c2.429-1.398,3.234-2.833,3.475-3.398
			c0.081-0.194,0.332-0.262,0.484-0.121c0.033,0.033,0.06,0.07,0.072,0.12c0,0,0.213-0.744-1.574-1.085
			c-1.791-0.338-3.905,0.013-5.35,1.245C61.113,20.176,60.314,21.227,61.221,21.718z"/>
		<path fill="#415F2C" d="M61.923,21.056c0.104-0.078,0.209-0.152,0.319-0.222c0.011-0.1,0.017-0.203,0.037-0.3
			c0.078-0.372,0.209-0.732,0.384-1.071c0.203-0.388,0.465-0.733,0.728-1.08c-0.295,0.161-0.572,0.347-0.83,0.561
			C62.154,19.6,61.876,20.344,61.923,21.056z"/>
		<path fill="#415F2C" d="M61.504,20.477c0.034-0.241,0.09-0.473,0.157-0.706c-0.192,0.199-0.354,0.39-0.486,0.571
			c-0.069,0.456-0.081,0.919,0.002,1.349c0.015,0.008,0.029,0.018,0.044,0.026c0,0,0.002,0.007,0.008,0.022
			c0.078-0.103,0.162-0.203,0.252-0.295C61.452,21.122,61.458,20.798,61.504,20.477z"/>
		<path fill="#415F2C" d="M63.415,20.209c0.001-0.021,0.005-0.043,0.011-0.066c0.077-0.372,0.206-0.73,0.383-1.069
			c0.224-0.428,0.521-0.803,0.807-1.187c-0.198,0.056-0.395,0.121-0.584,0.196c-0.508,0.674-0.92,1.489-0.963,2.287
			C63.184,20.315,63.297,20.261,63.415,20.209z"/>
		<path fill="#415F2C" d="M64.678,19.702c0.08-0.32,0.196-0.631,0.35-0.924c0.209-0.4,0.482-0.757,0.752-1.115
			c-0.166,0.018-0.328,0.042-0.49,0.071c-0.479,0.619-0.876,1.364-0.98,2.109C64.432,19.794,64.555,19.748,64.678,19.702z"/>
		<path fill="#415F2C" d="M65.74,19.296c0.05-0.02,0.1-0.04,0.148-0.06c0.073-0.239,0.166-0.471,0.282-0.694
			c0.171-0.329,0.386-0.624,0.604-0.916c-0.146-0.005-0.293-0.003-0.438,0c-0.39,0.531-0.714,1.145-0.846,1.768
			C65.574,19.363,65.657,19.33,65.74,19.296z"/>
		<path fill="#415F2C" d="M67.15,18.736c0.041-0.1,0.086-0.199,0.138-0.295c0.131-0.252,0.287-0.485,0.453-0.714
			c-0.13-0.023-0.259-0.042-0.394-0.056c-0.264,0.381-0.49,0.803-0.636,1.234C66.857,18.847,67.004,18.791,67.15,18.736z"/>
		<path fill="#415F2C" d="M68.229,18.357c0.09-0.153,0.188-0.297,0.291-0.44c-0.106-0.038-0.227-0.071-0.357-0.106
			c-0.154,0.224-0.293,0.46-0.413,0.706C67.907,18.46,68.066,18.407,68.229,18.357z"/>
		<path fill="#415F2C" d="M61.74,21.326c-0.016-0.008-0.03-0.013-0.043-0.017c-0.047,0.038-0.094,0.077-0.146,0.113
			c-0.005,0.035,0.001,0.075,0.028,0.108c0.216,0.279,0.57,0.398,0.891,0.525c0.454,0.176,0.922,0.297,1.406,0.361
			c0.35,0.046,0.704,0.057,1.057,0.061c0.148-0.074,0.301-0.154,0.463-0.248c0.088-0.052,0.177-0.104,0.264-0.156
			C64.307,22.102,62.918,22.038,61.74,21.326z"/>
		<path fill="#415F2C" d="M62.922,20.584c-0.02,0.012-0.043,0.02-0.064,0.032c-0.08,0.038-0.157,0.074-0.237,0.109
			c0.216,0.25,0.551,0.367,0.854,0.486c0.453,0.176,0.924,0.297,1.406,0.362c0.479,0.063,0.962,0.06,1.445,0.066
			c0.201-0.14,0.387-0.279,0.558-0.415C65.527,21.262,64.127,21.235,62.922,20.584z"/>
		<path fill="#415F2C" d="M64.23,19.987c-0.109,0.05-0.219,0.096-0.326,0.146c0.24,0.239,0.594,0.324,0.916,0.414
			c0.466,0.133,0.945,0.206,1.433,0.221c0.41,0.013,0.813-0.02,1.224-0.057c0.162-0.156,0.309-0.305,0.44-0.451
			C66.673,20.405,65.396,20.465,64.23,19.987z"/>
		<path fill="#415F2C" d="M66.021,19.247c-0.139,0.05-0.281,0.103-0.424,0.156c0.233,0.174,0.537,0.249,0.814,0.325
			c0.47,0.133,1.104,0.136,1.591,0.153c0.06,0.001,0.142-0.002,0.237-0.008c0.091-0.12,0.173-0.232,0.244-0.34
			C67.646,19.577,66.813,19.525,66.021,19.247z"/>
		<path fill="#415F2C" d="M66.952,18.938c0.058,0.015,0.114,0.03,0.167,0.045c0.26,0.071,0.934,0.148,1.582,0.191
			c0.051-0.091,0.093-0.174,0.126-0.248c-0.418-0.048-0.841-0.104-1.254-0.184C67.365,18.805,67.157,18.872,66.952,18.938z"/>
		<path fill="#1B2A18" d="M61.301,21.764c0.008-0.011,0.922-0.854,4.389-2.278c2.082-0.855,3.055-1.227,3.709-0.919
			c-0.019-0.045-0.045-0.093-0.084-0.145c-0.627-0.214-1.738,0.035-3.763,0.749c-3.546,1.248-4.321,2.354-4.403,2.489l-0.01,0.008
			c0.026,0.019,0.055,0.035,0.082,0.05c0,0,0.01,0.035,0.035,0.095l0.03-0.029L61.301,21.764z"/>
	</g>
	<g enable-background="new    ">
		<path d="M9.202,16.861H7.627v4.424H6.656v-4.424H5.081v-0.798h4.121V16.861z"/>
		<path d="M14.29,16.063v5.222h-0.975v-2.282h-2.452v2.282H9.888v-5.222h0.975v2.247h2.452v-2.247H14.29z"/>
		<path d="M16.428,16.836v1.448h1.827v0.748h-1.827v1.477h2.318v0.776h-3.293v-5.222h3.293v0.773H16.428z"/>
		<path d="M23.059,16.063c0.349,0,0.651,0.041,0.906,0.123c0.255,0.082,0.466,0.196,0.632,0.343c0.166,0.147,0.29,0.323,0.37,0.527
			s0.121,0.429,0.121,0.672c0,0.253-0.042,0.484-0.126,0.695c-0.084,0.21-0.211,0.392-0.379,0.543
			c-0.168,0.151-0.38,0.27-0.634,0.354c-0.254,0.084-0.551,0.126-0.89,0.126h-0.726v1.838h-0.971v-5.222H23.059z M23.059,18.688
			c0.178,0,0.333-0.022,0.466-0.067c0.132-0.044,0.243-0.108,0.331-0.191s0.153-0.184,0.197-0.303s0.065-0.252,0.065-0.399
			c0-0.14-0.021-0.266-0.065-0.379s-0.108-0.209-0.195-0.289c-0.087-0.079-0.196-0.14-0.329-0.182
			c-0.132-0.042-0.289-0.063-0.469-0.063h-0.726v1.874H23.059z"/>
		<path d="M30.812,18.674c0,0.383-0.063,0.737-0.189,1.063s-0.305,0.608-0.537,0.847c-0.231,0.238-0.509,0.424-0.834,0.558
			s-0.686,0.2-1.083,0.2c-0.395,0-0.755-0.066-1.08-0.2c-0.325-0.134-0.604-0.32-0.836-0.558c-0.232-0.238-0.412-0.521-0.54-0.847
			c-0.128-0.326-0.191-0.681-0.191-1.063s0.063-0.737,0.191-1.064c0.127-0.326,0.308-0.608,0.54-0.847
			c0.232-0.238,0.511-0.424,0.836-0.558c0.325-0.133,0.685-0.2,1.08-0.2c0.265,0,0.514,0.031,0.748,0.092
			c0.233,0.062,0.448,0.148,0.643,0.26c0.195,0.112,0.37,0.248,0.525,0.408s0.287,0.339,0.396,0.536s0.19,0.412,0.247,0.643
			C30.784,18.176,30.812,18.419,30.812,18.674z M29.819,18.674c0-0.287-0.039-0.544-0.116-0.771c-0.077-0.227-0.187-0.42-0.329-0.58
			c-0.142-0.159-0.314-0.28-0.518-0.365c-0.204-0.084-0.433-0.126-0.688-0.126s-0.484,0.042-0.688,0.126
			c-0.204,0.084-0.377,0.206-0.52,0.365c-0.143,0.159-0.253,0.353-0.331,0.58c-0.077,0.228-0.115,0.485-0.115,0.771
			c0,0.286,0.038,0.543,0.115,0.771s0.188,0.42,0.331,0.578s0.316,0.279,0.52,0.363c0.204,0.084,0.433,0.126,0.688,0.126
			s0.484-0.042,0.688-0.126c0.204-0.084,0.376-0.205,0.518-0.363s0.252-0.35,0.329-0.578C29.78,19.218,29.819,18.96,29.819,18.674z"
			/>
		<path d="M34.853,16.861h-1.575v4.424h-0.971v-4.424h-1.575v-0.798h4.121V16.861z"/>
		<path d="M39.187,16.861h-1.575v4.424h-0.971v-4.424h-1.575v-0.798h4.121V16.861z"/>
		<path d="M40.848,16.836v1.448h1.827v0.748h-1.827v1.477h2.318v0.776h-3.293v-5.222h3.293v0.773H40.848z"/>
		<path d="M48.663,18.674c0,0.383-0.063,0.734-0.191,1.054c-0.127,0.32-0.307,0.596-0.538,0.827
			c-0.231,0.231-0.509,0.411-0.834,0.538s-0.686,0.191-1.083,0.191h-1.99v-5.222h1.99c0.397,0,0.758,0.064,1.083,0.193
			s0.603,0.308,0.834,0.538c0.231,0.23,0.411,0.505,0.538,0.825C48.599,17.94,48.663,18.292,48.663,18.674z M47.666,18.674
			c0-0.287-0.038-0.544-0.114-0.771c-0.076-0.227-0.186-0.42-0.329-0.578s-0.316-0.279-0.52-0.363
			c-0.204-0.084-0.433-0.126-0.688-0.126h-1.015v3.676h1.015c0.255,0,0.484-0.042,0.688-0.126c0.204-0.084,0.377-0.205,0.52-0.363
			s0.253-0.35,0.329-0.578S47.666,18.96,47.666,18.674z"/>
	</g>
</g>
</svg>
